<svg width="99px" height="97px" viewBox="0 0 99 97" version="1.1" xmlns="http://www.w3.org/2000/svg" xmlns:xlink="http://www.w3.org/1999/xlink">
    <g id="Page-1" stroke="none" stroke-width="1" fill="none" fill-rule="evenodd">
        <g id="Group" transform="translate(0.000000, 1.000000)">
            <g id="Group-2">
                <path d="M2.72773437,87.0332031 L2.37122421,86.5903859 C2.02273815,86.1575353 2.04986155,85.4799665 2.42829764,85.080695 L82.74375,0.343359375 L85.1476562,2.56835937 L83.6625,4.08007813" id="Path-2" stroke="#000000" stroke-linecap="round" stroke-linejoin="round"></path>
                <polygon id="Path-3" fill="#000000" points="69.6898437 14.5851562 70.7304687 15.6601562 2.99414063 87.0761719 2.13359375 85.7191406"></polygon>
                <path d="M84.038234,6.81648788 C84.4241426,6.41610382 84.4152205,5.78186658 84.0101923,5.39207087 L82.7516817,4.18089101 C82.3502861,3.79459128 81.7206206,3.80188838 81.3353938,4.20760644 L41.3160791,46.3556525 L1.2967644,88.5036986 C0.915965806,88.9047529 0.899168171,89.5750036 1.25018361,89.9900307 L1.83251545,90.6785575 C2.18758818,91.0983818 2.78986739,91.1124863 3.17418083,90.7137572 L84.038234,6.81648788 Z" id="Path-4" stroke="#000000" stroke-linecap="round" stroke-linejoin="round" fill="#000000"></path>
            </g>
            <g id="Group-2-Copy" transform="translate(51.845536, 54.572653) rotate(6.000000) translate(-51.845536, -54.572653) translate(8.845536, 8.572653)">
                <path d="M2.72773437,87.0332031 L2.37122421,86.5903859 C2.02273815,86.1575353 2.04986155,85.4799665 2.42829764,85.080695 L82.74375,0.343359375 L85.1476562,2.56835938 L83.6625,4.08007813" id="Path-2" stroke="#000000" stroke-linecap="round" stroke-linejoin="round"></path>
                <polygon id="Path-3" fill="#000000" points="69.6898437 14.5851563 70.7304687 15.6601563 2.99414062 87.0761719 2.13359375 85.7191406"></polygon>
                <path d="M84.038234,6.81648788 C84.4241426,6.41610382 84.4152205,5.78186658 84.0101923,5.39207087 L82.7516817,4.18089101 C82.3502861,3.79459128 81.7206206,3.80188838 81.3353938,4.20760644 L41.3160791,46.3556525 L1.2967644,88.5036986 C0.915965806,88.9047529 0.899168171,89.5750036 1.25018361,89.9900307 L1.83251545,90.6785575 C2.18758818,91.0983818 2.78986739,91.1124863 3.17418083,90.7137572 L84.038234,6.81648788 Z" id="Path-4" stroke="#000000" stroke-linecap="round" stroke-linejoin="round" fill="#000000"></path>
            </g>
        </g>
    </g>
</svg>