<svg xmlns="http://www.w3.org/2000/svg" width="247.925" height="248.096" viewBox="568.985 16.828 247.925 248.096" enable-background="new 568.985 16.828 247.925 248.096"><path d="M720.841 83.137c-2.403 5.218-2.029 9.966.139 14.244l10.516-10.515c-.759-3.769-2.938-7.219-6.014-10.35-1.892 1.931-3.534 4.215-4.641 6.621zM699.415 153.397c2.98 7.736 9.792 10.553 17.484 10.522-.029-2.919-.588-5.914-1.62-8.585-2.647-6.864-8.31-9.859-14.929-10.426l-2.401 2.401c.236 2.098.728 4.176 1.466 6.088zM698.969 119.39l6.704-6.703c-2.479-.897-5.231-1.289-8.112-1.278.028 2.702.516 5.465 1.408 7.981zM715.28 188.441c-2.981-7.729-9.79-10.552-17.482-10.523.03 2.919.587 5.914 1.618 8.585 2.98 7.733 9.792 10.555 17.484 10.524-.03-2.918-.588-5.913-1.62-8.586zM655.185 163.172l12.984-12.983c-1.736.154-3.468.547-5.05 1.158-5.377 2.072-7.617 6.591-7.934 11.825zM716.582 128.675l-1.787 1.787c.618.038 1.241.058 1.873.056-.007-.613-.033-1.227-.086-1.843zM661.368 137.671c5.549-2.141 7.601-6.983 7.678-12.455-2.049.069-4.128.483-6 1.206-5.547 2.14-7.596 6.984-7.673 12.455 2.047-.069 4.123-.483 5.995-1.206zM630.638 131.228c2.142 5.55 6.984 7.598 12.458 7.675-.069-2.046-.482-4.124-1.205-5.995-2.142-5.55-6.984-7.598-12.458-7.673.068 2.047.482 4.122 1.205 5.993zM653.709 113.565c2.677-5.814.809-10.856-3.252-15.126-1.405 1.438-2.628 3.126-3.454 4.92-2.662 5.779-.65 10.74 3.473 14.936 1.312-1.4 2.447-3.025 3.233-4.73zM642.064 158.221c-2.139-5.55-6.981-7.599-12.453-7.675.069 2.046.481 4.123 1.205 5.993 2.139 5.551 6.982 7.601 12.454 7.679-.067-2.048-.48-4.125-1.206-5.997zM630.741 181.651c.569 1.478 1.334 2.703 2.246 3.717l6.304-6.304c-2.508-2.41-5.983-3.39-9.759-3.43.069 2.054.485 4.139 1.209 6.017zM741.275 179.435c-7.728 2.98-10.548 9.79-10.519 17.483 2.92-.03 5.915-.589 8.589-1.619 7.731-2.982 10.552-9.791 10.525-17.481-2.921.028-5.919.587-8.595 1.617zM739.299 128.933c7.73-2.98 10.553-9.79 10.527-17.481-2.922.03-5.921.587-8.601 1.62-7.728 2.979-10.546 9.789-10.518 17.479 2.921-.03 5.917-.588 8.592-1.618zM661.571 188.141c5.466-2.107 7.571-6.813 7.731-12.18l-12.979 12.979-.004.365c1.802-.135 3.606-.53 5.252-1.164zM741.465 146.472c-7.73 2.981-10.55 9.792-10.522 17.484 2.919-.029 5.915-.587 8.589-1.617 7.732-2.98 10.554-9.792 10.526-17.483-2.921.029-5.918.586-8.593 1.616z" fill="none"/><path d="M651.976 121.523c8.312-7.681 7.997-18.544.038-26.266-.542-1.145-2.177-1.891-3.438-.788-9.155 7.998-8.774 19.753 0 27.784 1.231 1.125 2.841.409 3.4-.73zm-4.973-18.164c.826-1.793 2.049-3.482 3.454-4.92 4.061 4.271 5.929 9.313 3.252 15.126-.786 1.704-1.921 3.329-3.233 4.729-4.123-4.195-6.135-9.156-3.473-14.935zM644.947 143.027c.687-.042 1.193-.351 1.527-.781.411-.334.706-.832.754-1.493.269-3.693-.605-7.533-2.133-10.87-3.137-6.859-10.45-9.209-17.512-8.772-.683.042-1.189.349-1.523.776-.414.334-.711.833-.761 1.498-.269 3.693.606 7.533 2.134 10.871 3.137 6.858 10.453 9.208 17.514 8.771zm-3.056-10.119c.723 1.871 1.136 3.948 1.205 5.995-5.474-.077-10.316-2.125-12.458-7.675-.723-1.871-1.137-3.946-1.205-5.993 5.473.076 10.316 2.123 12.458 7.673zM651.249 140.732c.043.701.366 1.213.811 1.547.334.395.821.679 1.467.726 3.692.272 7.53-.604 10.87-2.13 6.86-3.137 9.21-10.453 8.775-17.513-.043-.709-.374-1.226-.827-1.559-.333-.391-.816-.671-1.456-.718-3.693-.27-7.531.605-10.868 2.132-6.861 3.138-9.207 10.454-8.772 17.515zm11.797-14.31c1.872-.722 3.951-1.137 6-1.206-.077 5.472-2.129 10.314-7.678 12.455-1.872.723-3.948 1.137-5.995 1.206.077-5.471 2.126-10.315 7.673-12.455zM627.759 146.421c-.69.043-1.199.356-1.533.79-.407.334-.698.828-.747 1.484-.268 3.692.604 7.532 2.13 10.87 3.139 6.86 10.455 9.211 17.514 8.778.697-.043 1.209-.362 1.543-.803.401-.334.689-.825.737-1.477.269-3.693-.604-7.529-2.13-10.87-3.139-6.858-10.455-9.21-17.514-8.772zm3.057 10.118c-.724-1.87-1.136-3.946-1.205-5.993 5.472.076 10.314 2.125 12.453 7.675.727 1.872 1.14 3.949 1.206 5.997-5.472-.078-10.316-2.128-12.454-7.679zM655.185 163.172c.317-5.234 2.558-9.753 7.935-11.826 1.582-.61 3.313-1.003 5.05-1.158l3.312-3.312c-.128-.04-.265-.069-.414-.08-3.621-.266-7.392.578-10.664 2.076-6.742 3.083-9.006 10.235-8.578 17.168.01.149.037.286.076.415l3.283-3.283zM630.741 181.651c-.725-1.877-1.141-3.963-1.209-6.016 3.775.04 7.251 1.02 9.759 3.43l3.01-3.009c-3.715-3.608-9.2-4.875-14.542-4.545-.838.052-1.414.5-1.727 1.084-.261.304-.438.7-.475 1.192-.271 3.68.6 7.502 2.119 10.828.642 1.403 1.466 2.606 2.419 3.646l2.892-2.891c-.912-1.016-1.676-2.242-2.246-3.719zM669.302 175.961c-.16 5.366-2.266 10.073-7.731 12.18-1.646.635-3.449 1.029-5.251 1.165l.004-.365-3.861 3.861c.31.285.719.484 1.238.522 3.68.269 7.503-.599 10.833-2.118 6.459-2.952 8.786-10.259 8.782-16.274.129-1.235-.184-2.172-.229-2.757l-3.785 3.786zM720.841 83.137c1.107-2.406 2.749-4.69 4.641-6.621 3.076 3.13 5.255 6.581 6.014 10.35l3.375-3.375c-1.337-4.099-3.891-8.026-7.625-11.444-.574-.525-1.223-.666-1.824-.566-.557-.053-1.146.102-1.675.563-9.271 8.097-11.001 19.089-5.906 28.476l3.14-3.14c-2.169-4.277-2.543-9.025-.14-14.243zM697.561 111.409c2.881-.011 5.634.381 8.112 1.278l3.438-3.438c-4.063-1.866-8.794-2.507-13.456-2.219-.743.046-1.287.387-1.643.858-.454.356-.781.893-.834 1.614-.328 4.488.644 9.146 2.401 13.278l3.39-3.39c-.892-2.516-1.38-5.279-1.408-7.981zM716.668 130.518c-.632.002-1.255-.018-1.873-.056l-3.984 3.985c2.525.472 5.155.612 7.766.45.744-.046 1.29-.388 1.646-.86.452-.356.779-.892.832-1.612.184-2.53-.051-5.113-.597-7.626l-3.875 3.875c.052.617.078 1.231.085 1.844zM727.198 134.118c.356.445.891.765 1.604.817 4.78.351 9.76-.762 14.081-2.737 8.896-4.068 11.889-13.507 11.325-22.658-.048-.763-.406-1.315-.896-1.67-.356-.438-.887-.751-1.592-.802-4.779-.352-9.756.762-14.079 2.738-8.894 4.067-11.879 13.509-11.314 22.659.046.75.394 1.297.871 1.653zm14.028-21.047c2.68-1.033 5.679-1.59 8.601-1.62.025 7.692-2.797 14.501-10.527 17.481-2.675 1.03-5.671 1.589-8.591 1.618-.029-7.69 2.789-14.499 10.517-17.479zM704.268 140.991l-3.917 3.917c6.619.567 12.281 3.562 14.929 10.426 1.032 2.672 1.591 5.667 1.62 8.585-7.692.03-14.504-2.787-17.484-10.522-.738-1.912-1.23-3.99-1.466-6.087l-3.806 3.807c.481 2.031 1.157 4.011 2.005 5.867 4.067 8.896 13.504 11.885 22.655 11.316.741-.046 1.285-.384 1.641-.853.458-.356.789-.894.842-1.618.349-4.782-.763-9.758-2.739-14.082-2.817-6.15-8.201-9.476-14.28-10.756zM753.546 141.274c-.356-.438-.887-.751-1.591-.804-4.778-.351-9.756.762-14.075 2.737-8.895 4.068-11.883 13.508-11.317 22.659.047.747.392 1.293.866 1.649.356.451.893.775 1.61.828 4.777.349 9.754-.763 14.079-2.74 8.896-4.069 11.887-13.508 11.323-22.661-.047-.761-.406-1.313-.895-1.668zm-14.015 21.065c-2.674 1.03-5.67 1.588-8.589 1.617-.027-7.691 2.792-14.502 10.522-17.484 2.675-1.03 5.672-1.587 8.593-1.617.028 7.692-2.793 14.503-10.526 17.484zM695.889 173.538c-.744.046-1.289.388-1.645.859-.452.356-.777.892-.829 1.612-.351 4.78.76 9.76 2.733 14.082 4.067 8.895 13.504 11.883 22.655 11.317.74-.046 1.284-.384 1.641-.851.457-.356.789-.895.842-1.619.349-4.782-.763-9.758-2.739-14.082-4.071-8.896-13.508-11.886-22.658-11.318zm3.526 12.966c-1.031-2.672-1.588-5.667-1.618-8.585 7.692-.029 14.501 2.794 17.482 10.523 1.032 2.672 1.591 5.668 1.62 8.587-7.692.03-14.503-2.792-17.484-10.525zM753.354 174.233c-.356-.437-.885-.75-1.588-.8-4.775-.349-9.756.761-14.075 2.738-8.894 4.067-11.884 13.505-11.316 22.658.047.748.394 1.295.871 1.649.355.448.89.77 1.604.822 4.783.35 9.758-.761 14.077-2.738 8.899-4.068 11.89-13.507 11.325-22.659-.048-.763-.408-1.316-.898-1.67zm-14.009 21.066c-2.674 1.03-5.669 1.589-8.589 1.619-.029-7.693 2.791-14.502 10.519-17.483 2.677-1.03 5.675-1.589 8.596-1.618.026 7.691-2.795 14.5-10.526 17.482zM591.609 236.99l198.365-195.828 3.239 3.28-198.365 195.828z"/><path stroke-width="6.19" stroke-miterlimit="10" d="M613.136 231.681c21.291 18.762 49.236 30.148 79.846 30.148 66.735 0 120.833-54.101 120.833-120.835 0-30.285-11.142-57.966-29.55-79.172M770.713 48.488c-21.012-17.675-48.125-28.329-77.731-28.329-66.736 0-120.834 54.1-120.834 120.834 0 29.274 10.412 56.116 27.732 77.028M772.758 50.072c-21.291-18.762-49.236-30.148-79.846-30.148-66.735 0-120.833 54.102-120.833 120.835 0 30.285 11.142 57.966 29.55 79.172M615.181 233.265c21.012 17.675 48.125 28.328 77.731 28.328 66.736 0 120.834-54.1 120.834-120.834 0-29.274-10.412-56.116-27.732-77.029" fill="none"/></svg>
