<?xml version="1.0" encoding="UTF-8"?>
<svg width="88px" height="88px" viewBox="0 0 88 88" version="1.1" xmlns="http://www.w3.org/2000/svg" xmlns:xlink="http://www.w3.org/1999/xlink">
    <!-- Generator: Sketch 41 (35326) - http://www.bohemiancoding.com/sketch -->
    <title>Untitled</title>
    <desc>Created with Sketch.</desc>
    <defs></defs>
    <g id="Page-1" stroke="none" stroke-width="1" fill="none" fill-rule="evenodd">
        <path d="M44,87.275 C20.138,87.275 0.725,67.862 0.725,44 C0.725,20.138 20.138,0.725 44,0.725 C67.862,0.725 87.275,20.138 87.275,44 C87.275,67.862 67.862,87.275 44,87.275 Z M44,4.225 C22.068,4.225 4.225,22.068 4.225,44 C4.225,65.932 22.068,83.775 44,83.775 C65.932,83.775 83.775,65.932 83.775,44 C83.775,22.068 65.932,4.225 44,4.225 Z M44,71.046 C29.086,71.046 16.954,58.913 16.954,44 C16.954,29.087 29.086,16.954 44,16.954 C58.914,16.954 71.046,29.086 71.046,44 C71.046,58.914 58.914,71.046 44,71.046 Z M44,20.454 C31.017,20.454 20.454,31.017 20.454,44 C20.454,56.983 31.017,67.546 44,67.546 C56.983,67.546 67.546,56.983 67.546,44 C67.546,31.017 56.983,20.454 44,20.454 Z M81.035,41.119 C81.035,33.149 77.325,24.758 70.857,18.097 C64.427,11.476 56.41,7.679 48.862,7.679 C47.896,7.679 47.112,8.463 47.112,9.429 C47.112,10.395 47.896,11.179 48.862,11.179 C55.47,11.179 62.571,14.589 68.346,20.535 C74.186,26.549 77.535,34.051 77.535,41.119 C77.535,42.085 78.319,42.869 79.285,42.869 C80.251,42.869 81.035,42.085 81.035,41.119 Z" id="Shape" fill="#000000"></path>
    </g>
</svg>
