<svg xmlns="http://www.w3.org/2000/svg" width="260.667" height="267.333" viewBox="283.372 6.125 260.667 267.333" enable-background="new 283.372 6.125 260.667 267.333"><path d="M362.193 21.241c-7.6 3.152-13.901 9.335-18.623 15.917-12.491 17.41-11.648 40.475-6.775 60.338.912 3.72 6.642 2.142 5.729-1.579-4.522-18.437-5.229-38.753 5.732-55.119 2.776-4.144 6.41-7.84 10.457-10.751 1.248-.898 2.557-1.712 3.903-2.454.386-.212 2.755-1.286 1.156-.623 3.486-1.447 1.959-7.197-1.579-5.729zM535.204 245.154c-73.004 12.596-142.173-32.204-187.569-85.855-6.81-8.048-14.363-16.448-15.813-28.672-1.091-9.19 1.491-18.571 5.685-26.692.897-1.738 1.9-3.434 3.012-5.043.638-.922-1.763 1.397-.741.779.54-.327 1.097-.624 1.656-.917 4.472-2.337 9.502-3.698 14.551-3.725 8.713-.046 15.086 5.656 19.231 12.857 2.839 4.933 4.458 10.699 7.041 15.804 9.966 19.691 24.738 37.045 40.393 52.413 32.169 31.581 71.29 55.666 111.775 75.023 3.782 1.809 7.1-3.825 3.299-5.643-43.471-20.785-85.259-46.99-118.521-82.226-9.149-9.691-17.548-20.118-24.708-31.368-2.234-3.509-4.322-7.113-6.238-10.805-.643-1.237-1.256-2.489-1.848-3.751-.232-.495-.457-.993-.679-1.492l-.342-.789c-4.5-10.873-9.5-21.242-21.401-25.324-8.877-3.045-19.999-.481-27.776 4.462-3.627 2.306-5.728 9.1-7.223 12.744-3.713 9.053-4.778 18.94-2.974 28.548 2.057 10.95 9.491 19.459 16.426 27.753 43.861 52.447 110.271 96.256 181.145 90.02 4.475-.395 8.932-1.037 13.358-1.801 4.147-.713 2.382-7.011-1.739-6.3zM292.912 62.393c3.792-1.271 8.112-1.257 11.972-.385 11.138 2.517 15.979 13.808 18.178 23.907.74 3.398 5.939 1.957 5.2-1.434-2.574-11.822-8.396-23.343-20.584-27.302-4.99-1.62-11.19-1.666-16.2.012-3.28 1.1-1.873 6.309 1.434 5.202zM324.078 82.781c-3.917 1.529-8.496 1.997-12.629 1.331-11.676-1.881-16.033-13.749-17.416-24.137-.452-3.395-5.852-3.439-5.394 0 1.636 12.284 6.412 25.116 19.398 28.895 5.464 1.59 12.159 1.187 17.474-.888 3.204-1.25 1.812-6.467-1.433-5.201z"/></svg>
