<?xml version="1.0" encoding="utf-8"?>
<!-- Generator: Adobe Illustrator 19.0.0, SVG Export Plug-In . SVG Version: 6.00 Build 0)  -->
<svg version="1.1" id="Слой_1" xmlns="http://www.w3.org/2000/svg" xmlns:xlink="http://www.w3.org/1999/xlink" x="0px" y="0px"
	 viewBox="25 78 350 45" style="enable-background:new 25 78 350 45;" xml:space="preserve">
<style type="text/css">
	.st0{display:none;}
	.st1{display:inline;fill:#B7B7B7;}
	.st2{display:inline;fill:#999999;}
	.st3{fill:none;stroke:#000000;stroke-width:1.0019;stroke-linecap:round;stroke-linejoin:round;stroke-miterlimit:10;}
	.st4{clip-path:url(#SVGID_2_);fill:#FFFFFF;}
	.st5{clip-path:url(#SVGID_4_);fill:#FFFFFF;}
	.st6{clip-path:url(#SVGID_6_);fill:#FFFFFF;}
	.st7{fill:none;stroke:#000000;stroke-linecap:round;stroke-linejoin:round;stroke-miterlimit:10;}
	.st8{clip-path:url(#SVGID_8_);fill:#FFFFFF;}
	.st9{clip-path:url(#SVGID_10_);fill:#FFFFFF;}
	.st10{clip-path:url(#SVGID_12_);fill:#FFFFFF;}
	.st11{clip-path:url(#SVGID_14_);fill:#FFFFFF;}
	.st12{fill:none;stroke:#000000;stroke-width:1.0004;stroke-linecap:round;stroke-linejoin:round;stroke-miterlimit:10;}
	.st13{clip-path:url(#SVGID_16_);fill:#FFFFFF;}
	.st14{fill:none;stroke:#000000;stroke-width:1.0053;stroke-linecap:round;stroke-linejoin:round;stroke-miterlimit:10;}
	.st15{clip-path:url(#SVGID_18_);fill:#FFFFFF;}
	.st16{clip-path:url(#SVGID_20_);fill:#FFFFFF;}
	.st17{clip-path:url(#SVGID_22_);fill:#FFFFFF;}
	.st18{fill:none;stroke:#000000;stroke-width:0.9941;stroke-linecap:round;stroke-linejoin:round;stroke-miterlimit:10;}
	.st19{clip-path:url(#SVGID_24_);fill:#FFFFFF;}
	.st20{clip-path:url(#SVGID_26_);fill:#FFFFFF;}
	.st21{clip-path:url(#SVGID_28_);fill:#FFFFFF;}
	.st22{fill:none;stroke:#000000;stroke-width:1.0033;stroke-linecap:round;stroke-linejoin:round;stroke-miterlimit:10;}
	.st23{clip-path:url(#SVGID_30_);fill:#FFFFFF;}
	.st24{clip-path:url(#SVGID_32_);fill:#FFFFFF;}
	.st25{clip-path:url(#SVGID_34_);fill:#EEEEEE;}
	.st26{fill:none;stroke:#000000;stroke-width:1.0091;stroke-linecap:round;stroke-linejoin:round;stroke-miterlimit:10;}
	.st27{clip-path:url(#SVGID_36_);fill:#FFFFFF;}
	.st28{clip-path:url(#SVGID_38_);fill:#FFFFFF;}
	.st29{clip-path:url(#SVGID_40_);fill:#FFFFFF;}
	.st30{fill:none;stroke:#000000;stroke-width:0.9879;stroke-linecap:round;stroke-linejoin:round;stroke-miterlimit:10;}
	.st31{clip-path:url(#SVGID_42_);fill:#EEEEEE;}
	.st32{clip-path:url(#SVGID_44_);fill:#FFFFFF;}
	.st33{clip-path:url(#SVGID_46_);fill:#FFFFFF;}
	.st34{fill:none;stroke:#000000;stroke-width:0.9963;stroke-linecap:round;stroke-linejoin:round;stroke-miterlimit:10;}
	.st35{clip-path:url(#SVGID_48_);fill:#FFFFFF;}
	.st36{clip-path:url(#SVGID_50_);fill:#FFFFFF;}
	.st37{clip-path:url(#SVGID_52_);fill:#FFFFFF;}
	.st38{clip-path:url(#SVGID_54_);fill:#FFFFFF;}
	.st39{clip-path:url(#SVGID_56_);fill:#FFFFFF;}
	.st40{clip-path:url(#SVGID_58_);fill:#FFFFFF;}
	.st41{clip-path:url(#SVGID_60_);fill:#FFFFFF;}
	.st42{clip-path:url(#SVGID_62_);fill:#FFFFFF;}
	.st43{clip-path:url(#SVGID_64_);fill:#FF0000;}
	.st44{fill:#FFFFFF;}
	.st45{font-family:'ArialMT';}
	.st46{font-size:8.4243px;}
</style>
<g id="Слой_1_1_">
</g>
<g id="Слой_3" class="st0">
	<rect x="25" y="78" class="st1" width="35" height="45"/>
	<rect x="60" y="78" class="st2" width="35" height="45"/>
	<rect x="95" y="78" class="st1" width="35" height="45"/>
	<rect x="130.1" y="78" class="st2" width="35" height="45"/>
	<rect x="165" y="78" class="st1" width="35" height="45"/>
	<rect x="200" y="78" class="st2" width="35" height="45"/>
	<rect x="235" y="78" class="st1" width="35" height="45"/>
	<rect x="270" y="78.1" class="st2" width="35" height="45"/>
	<rect x="340" y="78.1" class="st2" width="35" height="45"/>
	<rect x="305" y="78.1" class="st1" width="35" height="45"/>
</g>
<g id="Слой_2">
	<g>
		<line class="st3" x1="121.9" y1="119.6" x2="117.7" y2="114.5"/>
		<polygon class="st3" points="96.3,101.9 110.5,107 110.2,123.3 99.5,118.5 		"/>
		<polygon class="st3" points="110.3,123.3 119.8,111.8 116,105.6 110.6,107.1 		"/>
		<polyline class="st3" points="118.5,109.3 121.5,103.8 126.7,102.3 122.2,119.7 110.3,123.3 		"/>
		<line class="st3" x1="121.9" y1="119.6" x2="117.7" y2="114.5"/>
		<line class="st3" x1="112.3" y1="97.1" x2="96.4" y2="101.9"/>
		<path class="st3" d="M112.4,97.1l14.3,5.2L112.4,97.1z"/>
		<g>
			<g>
				<defs>
					<polygon id="SVGID_1_" points="110.7,106.7 101,100.4 102.4,98.2 112.2,98 114.8,99 126.7,102.3 					"/>
				</defs>
				<clipPath id="SVGID_2_">
					<use xlink:href="#SVGID_1_"  style="overflow:visible;"/>
				</clipPath>
				<rect x="95.9" y="92.8" class="st4" width="35.8" height="19.2"/>
			</g>
		</g>
		<polygon class="st3" points="110.7,106.7 101,100.4 102.4,98.2 112.2,98 114.8,99 126.7,102.3 		"/>
		<g>
			<g>
				<defs>
					<polygon id="SVGID_3_" points="110.5,106.5 117.2,101.2 116.3,99.7 106.1,96.6 103.5,97 96.3,101.8 					"/>
				</defs>
				<clipPath id="SVGID_4_">
					<use xlink:href="#SVGID_3_"  style="overflow:visible;"/>
				</clipPath>
				<rect x="91.3" y="91.4" class="st5" width="31" height="20.5"/>
			</g>
		</g>
		<polygon class="st3" points="110.5,107 117.2,101.2 116.3,99.7 106.1,96.6 103.5,97 96.3,101.8 		"/>
		<g>
			<g>
				<defs>
					<polygon id="SVGID_5_" points="112.4,97.1 102.8,96.2 101.3,97.1 103.9,98.4 102.6,98.9 103.3,101 104.3,100.1 105.9,99.5 
						110.3,101.3 112.6,101.7 126.6,102.3 					"/>
				</defs>
				<clipPath id="SVGID_6_">
					<use xlink:href="#SVGID_5_"  style="overflow:visible;"/>
				</clipPath>
				<rect x="96.2" y="91" class="st6" width="35.5" height="16.5"/>
			</g>
		</g>
		<polygon class="st3" points="112.4,97.1 102.8,96.2 101.3,97.1 103.9,98.4 102.6,98.9 103.3,101 104.3,100.1 105.9,99.5 
			110.3,101.3 112.6,101.7 126.6,102.3 		"/>
		<path class="st3" d="M110.6,107.2l15.7-4.8L110.6,107.2z"/>
	</g>
	<g>
		<polygon class="st7" points="60.9,102.6 75.5,107.4 75.1,123.4 64,118.8 		"/>
		<polygon class="st7" points="75.1,123.4 84.2,111.9 80.6,105.7 75.5,107.4 		"/>
		<polyline class="st7" points="83.2,109.5 86.1,104 91.3,102.6 86.9,119.8 75.1,123.4 		"/>
		<line class="st7" x1="77.1" y1="97.3" x2="60.9" y2="102.6"/>
		<path class="st7" d="M77.1,97.3l14.2,5.2L77.1,97.3z"/>
		<g>
			<g>
				<defs>
					<polygon id="SVGID_7_" points="75.5,106.7 66,100.7 67.4,98.6 77,98.4 79.6,99.4 91.3,102.5 					"/>
				</defs>
				<clipPath id="SVGID_8_">
					<use xlink:href="#SVGID_7_"  style="overflow:visible;"/>
				</clipPath>
				<rect x="60.9" y="93.2" class="st8" width="35.4" height="18.8"/>
			</g>
		</g>
		<polygon class="st7" points="75.5,106.7 66,100.7 67.4,98.6 77,98.4 79.6,99.4 91.3,102.5 		"/>
		<g>
			<g>
				<defs>
					<polygon id="SVGID_9_" points="74.9,107.2 82.2,101.8 81.1,99.7 71.4,97.3 66.8,98.2 60.9,102.5 					"/>
				</defs>
				<clipPath id="SVGID_10_">
					<use xlink:href="#SVGID_9_"  style="overflow:visible;"/>
				</clipPath>
				<rect x="55.9" y="92.1" class="st9" width="31.3" height="20.3"/>
			</g>
		</g>
		<polygon class="st7" points="74.9,107.2 82.2,101.8 81.1,99.7 71.4,97.3 66.8,98.2 60.9,102.5 		"/>
		<g>
			<g>
				<defs>
					<polygon id="SVGID_11_" points="77.2,97.3 66.9,97.9 65,99.1 68.8,100.5 67,101.1 68.6,103.6 69.3,102.2 71.3,101.6 
						75.5,102.9 77.8,103.1 91.3,102.5 					"/>
				</defs>
				<clipPath id="SVGID_12_">
					<use xlink:href="#SVGID_11_"  style="overflow:visible;"/>
				</clipPath>
				<rect x="59.9" y="92.1" class="st10" width="36.4" height="16.7"/>
			</g>
		</g>
		<polygon class="st7" points="77.2,97.3 66.9,97.9 65,99.1 68.8,100.5 67,101.1 68.6,103.6 69.3,102.2 71.3,101.6 75.5,102.9 
			77.8,103.1 91.3,102.5 		"/>
		<path class="st7" d="M75.2,107.4l15.1-4.8L75.2,107.4z"/>
		<line class="st7" x1="86.4" y1="119.5" x2="82.2" y2="115.1"/>
	</g>
	<g>
		<g>
			<g>
				<defs>
					<polygon id="SVGID_13_" points="26.1,102.2 39.8,107.3 39.4,123.3 29,118.6 					"/>
				</defs>
				<clipPath id="SVGID_14_">
					<use xlink:href="#SVGID_13_"  style="overflow:visible;"/>
				</clipPath>
				<rect x="21.1" y="96.8" class="st11" width="23.8" height="31.8"/>
			</g>
		</g>
		<polygon class="st12" points="26.1,102.2 39.8,107.3 39.4,123.3 29,118.6 		"/>
		<polyline class="st12" points="47.4,109.4 50.2,104 55.4,102.5 51,119.8 39.5,123.4 		"/>
		<g>
			<g>
				<defs>
					<polygon id="SVGID_15_" points="39.5,123.4 48.7,112 45,105.8 39.8,107.3 					"/>
				</defs>
				<clipPath id="SVGID_16_">
					<use xlink:href="#SVGID_15_"  style="overflow:visible;"/>
				</clipPath>
				<rect x="34.4" y="100.5" class="st13" width="19.2" height="28.2"/>
			</g>
		</g>
		<polygon class="st12" points="39.4,123.2 48.4,112 44.8,105.8 39.6,107.3 		"/>
		<line class="st12" x1="50.7" y1="119.7" x2="46.7" y2="114.7"/>
		<line class="st12" x1="41.5" y1="97.3" x2="26.2" y2="102"/>
		<path class="st12" d="M41.6,97.3l13.8,5.1L41.6,97.3z"/>
		<line class="st12" x1="39.9" y1="107.3" x2="55.1" y2="102.5"/>
		<path class="st12" d="M37.2,106.2h5.8H37.2z"/>
		<path class="st12" d="M28.5,102.9l1.5-2L28.5,102.9z"/>
	</g>
	<g>
		<polygon class="st14" points="131.9,101.8 146.1,106.8 145.8,123.3 135,118.5 		"/>
		<polygon class="st14" points="145.8,123.3 155.3,111.8 151.4,105.5 146.2,107.1 		"/>
		<polyline class="st14" points="154.1,109.1 157,103.7 162.3,102.2 157.8,119.7 145.8,123.3 		"/>
		<line class="st14" x1="157.5" y1="119.6" x2="153.3" y2="114.5"/>
		<line class="st14" x1="147.9" y1="96.9" x2="131.9" y2="101.8"/>
		<path class="st14" d="M147.9,96.9l14.3,5.2L147.9,96.9z"/>
		<g>
			<g>
				<defs>
					<polygon id="SVGID_17_" points="146.2,106.7 136.6,100.3 138,98.1 147.7,97.9 150.4,98.9 162.2,102.2 					"/>
				</defs>
				<clipPath id="SVGID_18_">
					<use xlink:href="#SVGID_17_"  style="overflow:visible;"/>
				</clipPath>
				<rect x="131.4" y="92.5" class="st15" width="35.8" height="19.4"/>
			</g>
		</g>
		<polygon class="st14" points="146.2,106.7 136.6,100.3 138,98.1 147.7,97.9 150.4,98.9 162.2,102.2 		"/>
		<g>
			<g>
				<defs>
					<polygon id="SVGID_19_" points="146,106.5 151.6,100.7 151,98.9 140.9,95.8 138,96.4 131.9,101.7 					"/>
				</defs>
				<clipPath id="SVGID_20_">
					<use xlink:href="#SVGID_19_"  style="overflow:visible;"/>
				</clipPath>
				<rect x="126.8" y="90.5" class="st16" width="29.9" height="21.2"/>
			</g>
		</g>
		<polygon class="st14" points="146.1,106.8 151.6,100.7 151,98.9 140.9,95.8 138,96.4 131.9,101.7 		"/>
		<g>
			<g>
				<defs>
					<polygon id="SVGID_21_" points="148,97 139.1,95.2 138,95.3 140.8,97 140.3,99.5 143.1,98 146.9,99.4 150.8,100.4 162.2,102.2 
											"/>
				</defs>
				<clipPath id="SVGID_22_">
					<use xlink:href="#SVGID_21_"  style="overflow:visible;"/>
				</clipPath>
				<rect x="132.9" y="89.9" class="st17" width="34.3" height="17.4"/>
			</g>
		</g>
		<polygon class="st14" points="148,97 139.1,95.2 138,95.3 140.8,97 140.3,99.5 143.1,98 146.9,99.4 150.8,100.4 162.2,102.2 		"/>
		<path class="st14" d="M146.2,107.1l15.7-4.8L146.2,107.1z"/>
	</g>
	<g>
		<polygon class="st18" points="167.5,102.3 181.7,107.2 181.4,123.3 170.6,118.5 		"/>
		<polygon class="st18" points="181.4,123.3 190.9,112 187,105.9 181.8,107.4 		"/>
		<polyline class="st18" points="189.7,109.5 192.6,104.1 197.9,102.7 193.4,119.8 181.4,123.3 		"/>
		<line class="st18" x1="193.1" y1="119.7" x2="188.9" y2="114.7"/>
		<line class="st18" x1="183.5" y1="97.6" x2="167.5" y2="102.3"/>
		<path class="st18" d="M183.6,97.6l14.3,5.1L183.6,97.6z"/>
		<g>
			<g>
				<defs>
					<polygon id="SVGID_23_" points="181.8,107.1 172.2,100.8 173.6,98.6 183.4,98.4 186,99.4 197.8,102.6 					"/>
				</defs>
				<clipPath id="SVGID_24_">
					<use xlink:href="#SVGID_23_"  style="overflow:visible;"/>
				</clipPath>
				<rect x="167" y="93.2" class="st19" width="35.8" height="19"/>
			</g>
		</g>
		<polygon class="st18" points="181.8,107.1 172.2,100.8 173.6,98.6 183.4,98.4 186,99.4 197.8,102.6 		"/>
		<g>
			<g>
				<defs>
					<polygon id="SVGID_25_" points="181.6,106.8 186.1,100.9 185.3,98.7 176.5,95.9 173,96.6 167.5,102.2 					"/>
				</defs>
				<clipPath id="SVGID_26_">
					<use xlink:href="#SVGID_25_"  style="overflow:visible;"/>
				</clipPath>
				<rect x="162.5" y="90.8" class="st20" width="28.8" height="21.2"/>
			</g>
		</g>
		<polygon class="st18" points="181.7,107.2 186.1,100.9 185.3,98.7 176.5,95.9 173,96.6 167.5,102.2 		"/>
		<g>
			<g>
				<defs>
					<polygon id="SVGID_27_" points="183.6,97.6 176.3,95.2 175,95.2 177,96.7 177,99 179.7,97.6 183.8,99 187.1,99.9 197.8,102.6 
											"/>
				</defs>
				<clipPath id="SVGID_28_">
					<use xlink:href="#SVGID_27_"  style="overflow:visible;"/>
				</clipPath>
				<rect x="170" y="90" class="st21" width="32.9" height="17.7"/>
			</g>
		</g>
		<polygon class="st18" points="183.6,97.6 176.3,95.2 175,95.2 177,96.7 177,99 179.7,97.6 183.8,99 187.1,99.9 197.8,102.6 		"/>
		<path class="st18" d="M181.8,107.4l15.7-4.7L181.8,107.4z"/>
	</g>
	<g>
		<polygon class="st22" points="202.5,102 216.7,107.1 216.4,123.4 205.7,118.6 		"/>
		<polygon class="st22" points="216.5,123.4 226,111.9 222.1,105.7 216.8,107.2 		"/>
		<polyline class="st22" points="224.7,109.3 227.7,103.8 232.9,102.4 228.4,119.8 216.5,123.4 		"/>
		<line class="st22" x1="228.1" y1="119.7" x2="223.9" y2="114.6"/>
		<line class="st22" x1="218.5" y1="97.1" x2="202.6" y2="101.9"/>
		<path class="st22" d="M218.6,97.1l14.3,5.2L218.6,97.1z"/>
		<g>
			<g>
				<defs>
					<polygon id="SVGID_29_" points="216.9,106.8 209.5,99 211.8,96.8 218.5,96.8 222.4,98.3 232.9,102.4 					"/>
				</defs>
				<clipPath id="SVGID_30_">
					<use xlink:href="#SVGID_29_"  style="overflow:visible;"/>
				</clipPath>
				<rect x="204.4" y="91.6" class="st23" width="33.5" height="20.5"/>
			</g>
		</g>
		<polygon class="st22" points="216.9,106.8 209.5,99 211.8,96.8 218.5,96.8 222.4,98.3 232.9,102.4 		"/>
		<g>
			<g>
				<defs>
					<polygon id="SVGID_31_" points="216.7,106.6 221,100.1 219.9,97.6 211.2,94.1 207.6,95.8 202.5,101.8 					"/>
				</defs>
				<clipPath id="SVGID_32_">
					<use xlink:href="#SVGID_31_"  style="overflow:visible;"/>
				</clipPath>
				<rect x="197.5" y="88.8" class="st24" width="28.7" height="23.1"/>
			</g>
		</g>
		<polygon class="st22" points="216.7,107.1 221,100.1 219.9,97.6 211.2,94.1 207.6,95.8 202.5,101.8 		"/>
		<g>
			<g>
				<defs>
					<polygon id="SVGID_33_" points="217.7,96.3 210.5,93.2 213.8,94.8 213.8,97.8 216,95.7 220.7,97.5 232.8,102.4 					"/>
				</defs>
				<clipPath id="SVGID_34_">
					<use xlink:href="#SVGID_33_"  style="overflow:visible;"/>
				</clipPath>
				<rect x="205.3" y="88" class="st25" width="32.5" height="19.6"/>
			</g>
		</g>
		<polygon class="st22" points="217.7,96.3 210.5,93.2 213.8,94.8 213.8,97.8 216,95.7 220.7,97.5 232.8,102.4 		"/>
		<path class="st22" d="M216.8,107.2l15.7-4.8L216.8,107.2z"/>
	</g>
	<g>
		<polyline class="st26" points="237.9,101.6 243.3,95.6 245.8,93.2 253,93.7 254.8,95.1 254,96.7 		"/>
		<polygon class="st26" points="237.9,101.7 252.1,106.8 251.8,123.4 241,118.5 		"/>
		<polygon class="st26" points="251.9,123.4 261.4,111.8 257.5,105.4 252.2,107 		"/>
		<polyline class="st26" points="260.1,109.1 263.1,103.6 268.2,102 263.8,119.7 251.9,123.4 		"/>
		<line class="st26" x1="263.5" y1="119.7" x2="259.2" y2="114.5"/>
		<line class="st26" x1="253.9" y1="96.8" x2="238" y2="101.7"/>
		<path class="st26" d="M254,96.8l14.3,5.2L254,96.8z"/>
		<g>
			<g>
				<defs>
					<polyline id="SVGID_35_" points="268.2,102 263.2,95.5 260.8,93.7 257.1,92.5 255.7,90.8 253.2,90 254.6,92.1 251.7,91.3 
						250.7,92.8 254,96.9 					"/>
				</defs>
				<clipPath id="SVGID_36_">
					<use xlink:href="#SVGID_35_"  style="overflow:visible;"/>
				</clipPath>
				<rect x="245.6" y="84.7" class="st27" width="27.7" height="22.6"/>
			</g>
		</g>
		<polyline class="st26" points="268.2,102 263.2,95.5 260.8,93.7 257.1,92.5 255.7,90.8 253.2,90 254.6,92.1 251.7,91.3 
			250.7,92.8 254,96.9 		"/>
		<g>
			<g>
				<defs>
					<polygon id="SVGID_37_" points="252.3,106.6 246.8,98.2 248,95.4 257.3,93.5 261.7,94.7 268.2,102 					"/>
				</defs>
				<clipPath id="SVGID_38_">
					<use xlink:href="#SVGID_37_"  style="overflow:visible;"/>
				</clipPath>
				<rect x="241.7" y="88.2" class="st28" width="31.6" height="23.8"/>
			</g>
		</g>
		<polygon class="st26" points="252.3,106.6 246.8,98.2 248,95.4 257.3,93.5 261.7,94.7 268.2,102 		"/>
		<g>
			<g>
				<defs>
					<polygon id="SVGID_39_" points="252.1,106.4 255,98.7 253.7,94.9 244.4,92 241.5,93.4 237.9,101.6 					"/>
				</defs>
				<clipPath id="SVGID_40_">
					<use xlink:href="#SVGID_39_"  style="overflow:visible;"/>
				</clipPath>
				<rect x="232.9" y="86.7" class="st29" width="27.3" height="25.1"/>
			</g>
		</g>
		<polygon class="st26" points="252.1,106.8 255,98.7 253.7,94.9 244.4,92 241.5,93.4 237.9,101.6 		"/>
		<path class="st26" d="M252.2,107l15.7-4.9L252.2,107z"/>
	</g>
	<g>
		<polygon class="st30" points="273.4,102.6 287.6,107.5 287.3,123.3 276.4,118.6 		"/>
		<polygon class="st30" points="287.3,123.3 296.8,112.2 292.9,106.1 287.7,107.6 		"/>
		<polyline class="st30" points="295.6,109.7 298.5,104.3 303.7,102.3 299.3,119.8 287.3,123.3 		"/>
		<line class="st30" x1="299" y1="119.7" x2="294.7" y2="114.8"/>
		<line class="st30" x1="289.4" y1="97.9" x2="273.4" y2="102.6"/>
		<path class="st30" d="M289.4,97.9l14.3,4.4L289.4,97.9z"/>
		<polygon class="st30" points="303.7,102.3 299,95.3 296.6,93 293.2,92.1 291.8,90.4 290.2,89.9 289.1,90.4 290.7,91.7 286.9,90.8 
			286.4,92.2 289.4,97.9 		"/>
		<g>
			<g>
				<defs>
					<polyline id="SVGID_41_" points="273.4,102.5 276,95.2 279,93.1 287.9,92.3 290,94 289.3,97.7 					"/>
				</defs>
				<clipPath id="SVGID_42_">
					<use xlink:href="#SVGID_41_"  style="overflow:visible;"/>
				</clipPath>
				<polygon class="st31" points="268.3,107 295,107.5 295,86.7 268.3,86.7 				"/>
			</g>
		</g>
		<polyline class="st30" points="273.4,102.5 276,95.2 279,93.1 287.9,92.3 290,94 289.3,97.7 		"/>
		<g>
			<g>
				<defs>
					<polygon id="SVGID_43_" points="287.7,107.3 282.2,99.2 283.4,96.5 292.7,94.6 297.2,95.8 303.6,102.3 					"/>
				</defs>
				<clipPath id="SVGID_44_">
					<use xlink:href="#SVGID_43_"  style="overflow:visible;"/>
				</clipPath>
				<polygon class="st32" points="277.1,112.4 308.8,111.8 308.8,89 277.1,89.5 				"/>
			</g>
		</g>
		<polygon class="st30" points="287.7,107.3 282.2,99.2 283.4,96.5 292.7,94.6 297.2,95.8 303.6,102.3 		"/>
		<g>
			<g>
				<defs>
					<polygon id="SVGID_45_" points="287.5,107.1 289.3,97.7 287.5,94.3 278.2,91.5 275.3,93.7 273.4,102.5 					"/>
				</defs>
				<clipPath id="SVGID_46_">
					<use xlink:href="#SVGID_45_"  style="overflow:visible;"/>
				</clipPath>
				<polygon class="st33" points="268.3,111.5 294.4,112.1 294.4,85.8 268.3,85.8 				"/>
			</g>
		</g>
		<polygon class="st30" points="287.6,107.5 289.3,97.7 287.5,94.3 278.2,91.5 275.3,93.7 273.4,102.5 		"/>
		<path class="st30" d="M287.7,107.6l15.7-5.3L287.7,107.6z"/>
	</g>
	<g>
		<polygon class="st34" points="308.7,102.2 323,107.2 322.6,123.3 311.8,118.5 		"/>
		<polygon class="st34" points="322.7,123.3 332.2,111.9 328.3,105.8 323.1,107.3 		"/>
		<polyline class="st34" points="330.8,109.4 333.9,104 339,102 334.6,119.7 322.7,123.3 		"/>
		<line class="st34" x1="334.3" y1="119.7" x2="330" y2="114.6"/>
		<line class="st34" x1="324.7" y1="97.3" x2="308.8" y2="102.2"/>
		<path class="st34" d="M324.8,97.3l14.3,4.6L324.8,97.3z"/>
		<g>
			<g>
				<defs>
					<polygon id="SVGID_47_" points="339,101.9 336.1,93.6 333.9,91.2 330.7,90.4 328.9,88.1 327.5,87.8 326,88.1 327.5,89.1 
						328.2,89.9 324.5,89.1 323.2,90.4 324.8,97.5 					"/>
				</defs>
				<clipPath id="SVGID_48_">
					<use xlink:href="#SVGID_47_"  style="overflow:visible;"/>
				</clipPath>
				<polygon class="st35" points="318.1,107.6 344.1,107.2 344.1,82.2 318.1,82.6 				"/>
			</g>
		</g>
		<polygon class="st34" points="339,101.9 336.1,93.6 333.9,91.2 330.7,90.4 328.9,88.1 327.5,87.8 326,88.1 327.5,89.1 328.2,89.9 
			324.5,89.1 323.2,90.4 324.8,97.5 		"/>
		<g>
			<g>
				<defs>
					<polyline id="SVGID_49_" points="308.7,102 311.3,94.1 312.6,91.5 322,90.2 324.6,92.1 324.6,97.1 					"/>
				</defs>
				<clipPath id="SVGID_50_">
					<use xlink:href="#SVGID_49_"  style="overflow:visible;"/>
				</clipPath>
				<polygon class="st36" points="303.6,106.7 329.6,107.3 329.6,85 303.6,84.6 				"/>
			</g>
		</g>
		<polyline class="st34" points="308.7,102 311.3,94.1 312.6,91.5 322,90.2 324.6,92.1 324.6,97.1 		"/>
		<g>
			<g>
				<defs>
					<polygon id="SVGID_51_" points="323.1,107 319.7,97.3 321.5,94.5 330.7,92.4 334.7,94 339,102 					"/>
				</defs>
				<clipPath id="SVGID_52_">
					<use xlink:href="#SVGID_51_"  style="overflow:visible;"/>
				</clipPath>
				<polygon class="st37" points="314.7,112.1 344.1,111.7 344.1,86.8 314.7,87.3 				"/>
			</g>
		</g>
		<polygon class="st34" points="323.1,107 319.7,97.3 321.5,94.5 330.7,92.4 334.7,94 339,102 		"/>
		<g>
			<g>
				<defs>
					<polygon id="SVGID_53_" points="322.9,106.7 322.9,95.9 320.8,92.1 311.8,90.1 309,92.8 308.7,102 					"/>
				</defs>
				<clipPath id="SVGID_54_">
					<use xlink:href="#SVGID_53_"  style="overflow:visible;"/>
				</clipPath>
				<polygon class="st38" points="303.6,111.4 327.9,111.9 327.9,85 303.6,84.5 				"/>
			</g>
		</g>
		<polygon class="st34" points="322.9,106.7 322.9,95.9 320.8,92.1 311.8,90.1 309,92.8 308.7,102 		"/>
		<path class="st34" d="M323,107.3l15.7-4.8L323,107.3z"/>
	</g>
	<g>
		<polygon class="st22" points="344,102.2 358.2,107.1 357.8,123.3 347.1,118.5 		"/>
		<polygon class="st22" points="357.8,123.2 367.4,111.9 363.5,105.7 358.3,107.3 		"/>
		<polyline class="st22" points="366,109.4 369.1,103.9 374.2,102.5 369.9,119.7 357.8,123.3 		"/>
		<line class="st22" x1="369.5" y1="119.6" x2="365.2" y2="114.6"/>
		<line class="st22" x1="360" y1="97.3" x2="344.1" y2="102.2"/>
		<path class="st22" d="M360,97.3l14.3,5.1L360,97.3z"/>
		<g>
			<g>
				<defs>
					<polygon id="SVGID_55_" points="374.2,102.5 375.3,90.2 373.6,87.3 369.4,86.3 370.1,82.8 366.5,78.4 367.7,82.4 366.8,85.9 
						363.1,84.9 361.3,87.3 360,97.5 					"/>
				</defs>
				<clipPath id="SVGID_56_">
					<use xlink:href="#SVGID_55_"  style="overflow:visible;"/>
				</clipPath>
				<rect x="354.9" y="73.1" class="st39" width="25.4" height="34.6"/>
			</g>
		</g>
		<polygon class="st22" points="374.2,102.5 375.3,90.2 373.6,87.3 369.4,86.3 370.1,82.8 366.5,78.4 367.7,82.4 366.8,85.9 
			363.1,84.9 361.3,87.3 360,97.5 		"/>
		<g>
			<g>
				<defs>
					<polyline id="SVGID_57_" points="344,101.8 342.9,90.5 344.8,87.4 354.1,84.8 357.7,87.4 359.8,96.8 					"/>
				</defs>
				<clipPath id="SVGID_58_">
					<use xlink:href="#SVGID_57_"  style="overflow:visible;"/>
				</clipPath>
				<rect x="337.8" y="79.6" class="st40" width="27" height="27.5"/>
			</g>
		</g>
		<polyline class="st22" points="344,101.8 342.9,90.5 344.8,87.4 354.1,84.8 357.7,87.4 359.8,96.8 		"/>
		<g>
			<g>
				<defs>
					<polygon id="SVGID_59_" points="358.3,107 360.3,95.5 363.2,92.2 373.2,90.7 376,93.2 374.2,102.4 					"/>
				</defs>
				<clipPath id="SVGID_60_">
					<use xlink:href="#SVGID_59_"  style="overflow:visible;"/>
				</clipPath>
				<rect x="353.2" y="85.4" class="st41" width="27.8" height="26.7"/>
			</g>
		</g>
		<polygon class="st22" points="358.3,107 360.3,95.5 363.2,92.2 373.2,90.7 376,93.2 374.2,102.4 		"/>
		<g>
			<g>
				<defs>
					<polygon id="SVGID_61_" points="358,106.7 356.4,95.8 353.4,92 345.2,90.4 342.7,93.3 344,102 					"/>
				</defs>
				<clipPath id="SVGID_62_">
					<use xlink:href="#SVGID_61_"  style="overflow:visible;"/>
				</clipPath>
				<rect x="337.6" y="85" class="st42" width="25.6" height="26.9"/>
			</g>
		</g>
		<polygon class="st22" points="358,106.7 356.4,95.8 353.4,92 345.2,90.4 342.7,93.3 344,102 		"/>
		<path class="st22" d="M358.3,107.3l15.7-4.8L358.3,107.3z"/>
		<g>
			<g>
				<defs>
					<ellipse id="SVGID_63_" cx="369.6" cy="93.2" rx="5.6" ry="6"/>
				</defs>
				<clipPath id="SVGID_64_">
					<use xlink:href="#SVGID_63_"  style="overflow:visible;"/>
				</clipPath>
				<rect x="359.1" y="82" class="st43" width="21.1" height="22.4"/>
			</g>
		</g>
		<text transform="matrix(0.9584 0 0 1 367.5889 96.3452)" class="st44 st45 st46">1</text>
	</g>
</g>
</svg>
