<?xml version="1.0" encoding="utf-8"?>
<!-- Generator: Adobe Illustrator 19.0.0, SVG Export Plug-In . SVG Version: 6.00 Build 0)  -->
<svg version="1.1" id="Шар_1" xmlns="http://www.w3.org/2000/svg" xmlns:xlink="http://www.w3.org/1999/xlink" x="0px" y="0px"
	 width="500px" height="50px" viewBox="0 0 500 50" style="enable-background:new 0 0 500 50;" xml:space="preserve">
<style type="text/css">
	.st0{display:none;fill:#549344;}
	.st1{fill:none;stroke:#FFFFFF;stroke-width:1.4;stroke-linecap:round;stroke-linejoin:round;stroke-miterlimit:10;}
	.st2{fill:none;stroke:#FFFFFF;stroke-width:1.4;stroke-miterlimit:10;}
	.st3{fill:none;stroke:#FFFFFF;stroke-width:1.25;stroke-linecap:round;stroke-linejoin:round;stroke-miterlimit:10;}
	.st4{fill:none;}
	.st5{clip-path:url(#SVGID_6_);fill:none;}
	.st6{clip-path:url(#SVGID_8_);fill:#FFFFFF;stroke:#FFFFFF;stroke-width:1.4;stroke-miterlimit:10;}
</style>
<rect class="st0" width="500" height="50"/>
<path class="st1" d="M23.9,30.3l17.6-5.4L23.9,30.3z"/>
<g>
	<g>
		<g>
			<g>
				<g>
					<g>
						<g>
							<polygon id="SVGID_1_" class="st2" points="8.4,24.6 24.1,30.4 23.6,48.5 11.8,43.3 							"/>
						</g>
					</g>
				</g>
			</g>
		</g>
	</g>
</g>
<polyline class="st1" points="32.5,33 35.9,26.6 41.8,24.9 36.8,44.4 23.7,48.5 "/>
<polygon class="st1" points="23.6,48.5 33.9,35.9 29.7,28.7 23.8,30.4 "/>
<line class="st1" x1="36.5" y1="44.5" x2="31.9" y2="38.9"/>
<line class="st1" x1="25.9" y1="19" x2="8.5" y2="24.5"/>
<path class="st1" d="M26,19l15.7,5.7L26,19z"/>
<line class="st1" x1="24.2" y1="30.3" x2="41.5" y2="25"/>
<path class="st1" d="M19.1,28.5L30,28.4L19.1,28.5z"/>
<path class="st3" d="M11.2,25.6l1.7-2.4L11.2,25.6z"/>
<polyline class="st1" points="73.5,48.5 61.9,43.4 58.4,24.9 74.2,30.3 "/>
<polygon class="st1" points="73.7,48.5 83.9,36 79.7,28.7 73.9,30.4 "/>
<polyline class="st1" points="82.4,33.2 85.7,26.8 91.8,24.9 87,44.5 73.8,48.5 "/>
<path class="st1" d="M58.4,24.9"/>
<path class="st1" d="M76.2,18.9"/>
<path class="st1" d="M76.2,18.9l15.5,6L76.2,18.9z"/>
<g>
	<g>
		<g>
			<g>
				<g>
					<g>
						<g>
							<path class="st4" d="M80.6,21.6"/>
						</g>
						<g>
							<defs>
								<polyline id="SVGID_2_" points="64.9,20 58.4,24.8 73.8,30.1 79.9,25.4 								"/>
							</defs>
							<clipPath id="SVGID_6_">
								<use xlink:href="#SVGID_2_"  style="overflow:visible;"/>
							</clipPath>
							<path class="st5" d="M80.6,21.6"/>
						</g>
						<g>
							<path id="SVGID_3_" class="st2" d="M80.6,21.6"/>
						</g>
						<g>
							<polyline id="SVGID_4_" class="st2" points="64.9,20 58.4,24.8 73.8,30.1 79.9,25.4 							"/>
						</g>
						<g>
							<path id="SVGID_5_" class="st2" d="M69.9,18.9"/>
						</g>
					</g>
				</g>
			</g>
		</g>
	</g>
</g>
<polyline class="st1" points="65.8,19.5 58.4,24.8 73.9,30.4 80.3,25.3 "/>
<g>
	<g>
		<g>
			<g>
				<g>
					<g>
						<g>
							<polyline id="SVGID_9_" class="st2" points="91.8,24.8 76.3,18.9 65,19.5 63,21 67.1,22.5 65.1,23.2 66.9,26.1 67.6,24.5 
								69.8,23.8 74.5,25.3 77,25.5 							"/>
						</g>
					</g>
				</g>
			</g>
		</g>
	</g>
</g>
<polygon class="st1" points="76.3,18.9 65,19.5 63,21 67.1,22.5 65.1,23.2 66.9,26.1 67.6,24.5 69.8,23.8 74.5,25.3 77,25.5 
	91.8,24.8 "/>
<path class="st1" d="M74.2,30.4L91,25.2L74.2,30.4z"/>
<line class="st1" x1="86.4" y1="44.2" x2="81.9" y2="39"/>
<line class="st1" x1="136.5" y1="44.4" x2="131.8" y2="38.6"/>
<polygon class="st1" points="108.6,24.4 124.1,30.2 123.7,48.5 112.1,43.1 "/>
<polygon class="st1" points="123.8,48.5 134,35.9 129.8,28.6 124.2,30.2 "/>
<polyline class="st1" points="132.6,32.9 136,26.5 141.7,24.8 136.8,44.5 123.8,48.5 "/>
<line class="st1" x1="136.5" y1="44.4" x2="131.8" y2="38.6"/>
<path class="st1" d="M108.6,24.3"/>
<path class="st1" d="M126,18.9"/>
<path class="st1" d="M126.1,18.9l15.5,5.9L126.1,18.9z"/>
<polyline class="st1" points="115.3,19.6 108.6,24.3 124,30.3 130.5,24.3 "/>
<path class="st1" d="M119.2,18.3"/>
<path class="st1" d="M130.3,21.9"/>
<g>
	<g>
		<g>
			<g>
				<g>
					<g>
						<g>
							<polyline id="SVGID_11_" class="st2" points="141.5,24.8 126.1,18.9 115.6,17.9 114,18.9 116.8,20.3 115.4,21 116.2,23.3 
								117.3,22.3 119,21.7 123.8,23.7 126.3,24.1 							"/>
						</g>
					</g>
				</g>
			</g>
		</g>
	</g>
</g>
<polygon class="st1" points="126.1,18.9 115.6,17.9 114,18.9 116.8,20.3 115.4,21 116.2,23.3 117.3,22.3 119,21.7 123.8,23.7 
	126.3,24.1 141.5,24.8 "/>
<path class="st1" d="M124.2,30.3l17.2-5.5L124.2,30.3z"/>
<polygon class="st1" points="158.4,24.7 173.9,30.6 173.6,48.6 161.8,43.3 "/>
<polygon class="st1" points="173.6,48.6 183.9,36 179.7,28.9 174.1,30.6 "/>
<polyline class="st1" points="182.4,33.1 185.8,26.9 191.8,25.1 186.7,44.7 173.6,48.6 "/>
<line class="st1" x1="186.4" y1="44.5" x2="181.8" y2="38.8"/>
<path class="st1" d="M175.9,19.1l15.6,5.8L175.9,19.1z"/>
<polyline class="st1" points="166.6,18.4 165,18.6 158.4,24.7 173.9,30.5 179.9,23.5 "/>
<g>
	<g>
		<g>
			<g>
				<g>
					<g>
						<g>
							<polygon id="SVGID_13_" class="st2" points="176,19.3 166.2,17.3 165,17.4 168.1,19.3 167.5,22.1 170.7,20.5 174.8,22 
								179,23.1 191.5,25.1 							"/>
						</g>
					</g>
				</g>
			</g>
		</g>
	</g>
</g>
<polygon class="st1" points="176,19.3 166.2,17.3 165,17.4 168.1,19.3 167.5,22.1 170.7,20.5 174.8,22 179,23.1 191.8,24.9 "/>
<path class="st1" d="M174.1,30.6l17.1-5.3L174.1,30.6z"/>
<polygon class="st1" points="258.3,24.9 273.9,30.5 273.6,48.6 261.6,43.5 "/>
<polygon class="st1" points="273.7,48.6 283.9,36 279.8,28.9 274,30.6 "/>
<polyline class="st1" points="282.4,33 285.9,26.9 291.5,25.1 286.7,44.6 273.7,48.6 "/>
<line class="st1" x1="286.3" y1="44.2" x2="281.8" y2="38.7"/>
<path class="st1" d="M276,19.2l15.7,6L276,19.2z"/>
<polygon class="st1" points="273.9,30.5 278.6,22.6 277.4,19.9 267.9,16 263.9,17.8 258.3,24.7 "/>
<g>
	<g>
		<g>
			<g>
				<g>
					<g>
						<g>
							<polygon id="SVGID_15_" class="st2" points="275,18.4 267,15 270.7,16.7 270.7,20.1 273.1,17.7 278.2,19.8 291.5,25.3 
															"/>
						</g>
					</g>
				</g>
			</g>
		</g>
	</g>
</g>
<polygon class="st1" points="275,18.4 267,15 270.4,16.4 270.6,20.2 273.5,17.7 278.2,19.8 291.5,25.3 "/>
<path class="st1" d="M274,30.6l17.2-5.4L274,30.6z"/>
<path class="st1" d="M308.4,24.9"/>
<polygon class="st1" points="308.4,24.8 323.9,30.4 323.6,48.4 311.7,43 "/>
<polygon class="st1" points="323.7,48.4 334.1,35.8 329.8,28.8 324,30.5 "/>
<polyline class="st1" points="332.7,32.9 336,26.8 341.6,25 336.8,44.3 323.7,48.4 "/>
<line class="st1" x1="336.4" y1="44.3" x2="331.7" y2="38.7"/>
<path class="st1" d="M308.5,24.8"/>
<path class="st1" d="M325.9,19.5"/>
<polyline class="st1" points="324,17.1 329.6,15.9 334.4,17.2 341.6,25 "/>
<path class="st1" d="M324.1,30.2"/>
<polygon class="st1" points="323.9,30.5 327,21.7 325.6,17.6 315.5,14.5 312.2,16 308.4,24.9 "/>
<path class="st1" d="M324,30.4l17.1-5.1L324,30.4z"/>
<polyline class="st1" points="329.9,15.9 327.4,13.5 324.8,13 326.3,14.8 323.4,14 322.4,15.5 323.5,16.9 "/>
<polygon class="st1" points="358.4,25.4 373.9,30.9 373.6,48.7 361.6,43.4 "/>
<polygon class="st1" points="373.6,48.7 383.8,36.1 379.8,29.1 374,30.9 "/>
<polyline class="st1" points="382.3,33.3 385.5,27.2 391.6,25 386.7,44.5 373.6,48.7 "/>
<line class="st1" x1="386.4" y1="44.6" x2="381.9" y2="38.9"/>
<path class="st1" d="M375.9,20.1"/>
<path class="st1" d="M391.6,25.1"/>
<path class="st1" d="M376,19.9"/>
<polyline class="st1" points="391.5,24.9 386.4,17.2 383.8,14.6 380.1,13.5 378.6,11.6 376.8,11 375.6,11.2 377.3,13.1 373.1,12.1 
	372.6,13.6 "/>
<polyline class="st1" points="367.9,14.2 374.2,13.7 376.6,15.1 376.7,16.9 "/>
<path class="st1" d="M361.2,17"/>
<path class="st1" d="M358.4,25.3"/>
<polyline class="st1" points="374.5,17.4 379.6,16.3 384.4,17.7 391.5,25 "/>
<path class="st1" d="M368,21.5"/>
<path class="st1" d="M374,30.7"/>
<polygon class="st1" points="373.9,30.9 375.8,19.9 373.8,16 363.6,12.9 360.5,15.3 358.4,25.3 "/>
<path class="st1" d="M374,31l17.3-5.7L374,31z"/>
<polygon class="st1" points="408.3,25.3 424,30.8 423.6,48.6 411.7,43.2 "/>
<polygon class="st1" points="423.7,48.6 433.9,36.1 429.9,29.3 424,30.8 "/>
<polyline class="st1" points="432.5,33.2 435.6,27.2 441.6,25.3 436.8,44.6 423.7,48.6 "/>
<line class="st1" x1="436.7" y1="44.6" x2="431.9" y2="39"/>
<path class="st1" d="M441.6,25.2"/>
<polyline class="st1" points="441.6,25.2 439.1,15.7 436.4,13.3 432.8,12.4 430.8,9.8 429.2,9.5 427.8,9.2 429.2,11 430.1,11.9 
	425.9,11 424.4,12.4 424.4,13.6 "/>
<polyline class="st1" points="416.4,13.5 423,12.6 425.8,14.6 425.8,16.3 "/>
<path class="st1" d="M408.3,25.2"/>
<g>
	<g>
		<g>
			<g>
				<g>
					<g>
						<g>
							<polygon id="SVGID_17_" class="st2" points="424.1,30.6 420.4,20.2 422.4,17.2 432.5,15 436.9,16.7 441.6,25.2 							"/>
						</g>
					</g>
				</g>
			</g>
		</g>
	</g>
</g>
<path class="st1" d="M420.4,20.2"/>
<polyline class="st1" points="423,17.1 432.5,15 436.9,16.7 441.6,25.5 424,30.6 "/>
<polygon class="st1" points="423.9,30.6 423.9,18.7 421.6,14.6 411.7,12.5 408.6,15.4 408.3,25.2 "/>
<path class="st1" d="M424,30.9l17.2-5.2L424,30.9z"/>
<polygon class="st1" points="458.1,25.6 473.7,31 473.3,48.5 461.5,43.4 "/>
<polygon class="st1" points="473.3,48.4 483.6,36 479.4,29.5 473.8,31.1 "/>
<polyline class="st1" points="482,33.5 485.7,27.5 491.2,25.9 486.6,44.6 473.3,48.5 "/>
<line class="st1" x1="486.2" y1="44.4" x2="481.5" y2="38.9"/>
<line class="st1" x1="475.4" y1="20.4" x2="472.2" y2="21.4"/>
<path class="st1" d="M475.7,20.3"/>
<path class="st1" d="M491.3,25.5"/>
<polyline class="st1" points="492.4,15.2 492.4,12.7 490.6,9.5 486,8.4 486.8,4.7 484.3,1 484.1,4.2 483.1,8 479.1,6.9 476.9,9.4 
	475.4,20.5 "/>
<g>
	<g>
		<g>
			<g>
				<g>
					<g>
						<g>
							<polyline id="SVGID_19_" class="st2" points="458.1,25.2 456.9,13 459,9.6 469.3,6.8 473.2,9.6 475.4,19.8 							"/>
						</g>
					</g>
				</g>
			</g>
		</g>
	</g>
</g>
<polyline class="st1" points="457.1,15.4 456.9,13 459,9.6 469.3,6.8 473.2,9.6 475.4,19.8 "/>
<polygon class="st1" points="473.8,30.9 476,18.3 479.2,14.8 490.2,13.2 493.3,15.9 491.2,25.8 "/>
<polygon class="st1" points="473.5,30.6 471.8,18.7 468.4,14.6 459.4,12.9 456.7,16 458.1,25.4 "/>
<path class="st1" d="M473.8,31l17.2-4.9L473.8,31z"/>
<polygon class="st1" points="208.3,24.3 224,30 223.6,48.6 211.7,43 "/>
<polygon class="st1" points="223.6,48.6 234,35.4 229.7,28.5 224.1,30.2 "/>
<polyline class="st1" points="232.7,32.6 235.8,26.4 241.7,24.7 236.7,44.6 223.6,48.6 "/>
<line class="st1" x1="236.4" y1="44.4" x2="231.8" y2="38.6"/>
<path class="st1" d="M208.3,24.3"/>
<path class="st1" d="M225.9,18.7"/>
<path class="st1" d="M226,18.7l15.7,5.9L226,18.7z"/>
<path class="st1" d="M225.8,19.7"/>
<path class="st1" d="M213.5,22.5"/>
<path class="st1" d="M224.1,29.8"/>
<polyline class="st1" points="217.7,16.9 214.4,17.6 208.3,24.2 224,30.2 228.7,22.6 228.2,20.9 "/>
<g>
	<g>
		<g>
			<g>
				<g>
					<g>
						<defs>
							<polygon id="SVGID_7_" points="226,18.7 218,16 216.5,16 218.7,17.7 218.7,20.4 221.7,18.7 226.2,20.4 229.8,21.4 
								241.6,24.6 							"/>
						</defs>
						<clipPath id="SVGID_8_">
							<use xlink:href="#SVGID_7_"  style="overflow:visible;"/>
						</clipPath>
						<rect x="211" y="-8.3" class="st6" width="36.1" height="20.6"/>
					</g>
					<g>
						<polygon id="SVGID_21_" class="st2" points="226,18.7 218,16 216.5,16 218.7,17.7 218.7,20.4 221.7,18.7 226.2,20.4 
							229.8,21.4 241.6,24.6 						"/>
					</g>
				</g>
			</g>
		</g>
	</g>
</g>
<polygon class="st1" points="226,18.7 218.1,15.9 216.5,16 218.7,17.7 218.7,20.4 221.7,18.7 226.2,20.4 229.8,21.4 241.6,24.6 "/>
<path class="st1" d="M224.1,30.2l17.2-5.5L224.1,30.2z"/>
<line class="st1" x1="320.7" y1="15.9" x2="322.9" y2="16.2"/>
<path class="st1" d="M295.7,10"/>
</svg>
