<svg width="137px" height="138px" viewBox="0 0 137 138" version="1.1" xmlns="http://www.w3.org/2000/svg" xmlns:xlink="http://www.w3.org/1999/xlink">
    <g id="Page-1" stroke="none" stroke-width="1" fill="none" fill-rule="evenodd">
        <g id="utensils" transform="translate(64.500000, 68.000000) rotate(-319.000000) translate(-64.500000, -68.000000) translate(26.000000, 2.000000)" stroke="#1A1919">
            <g id="Слой_1">
                <path d="M17.789,6.639 C19.938,6.837 23.682,10.03 25.672,14.904 C27.663,19.779 27.56,22.69 27.727,27.9" id="Shape" stroke-width="2.126"></path>
                <path d="M13.333,51.606 C15.989,65.902 14.484,84.122 13.333,90.717 C12.487,95.566 8.274,122.991 9.465,127.078 C10.367,130.172 14.026,131.391 17.452,131.363 C20.878,131.335 24.589,130.33 25.492,127.078 C26.63,122.976 22.471,95.566 21.624,90.717 C20.473,84.122 18.967,65.902 21.624,51.606 C23.375,42.18 33.497,43.692 34.404,34.588 C36.621,12.346 25.286,0.418 17.452,0.418 C10.519,0.418 -0.962,9.36 0.554,34.588 C1.103,43.721 11.581,42.18 13.333,51.606 L13.333,51.606 Z" id="Shape" stroke-width="2.835"></path>
                <path d="M63.26,0.522 C62.958,0.521 62.655,0.521 62.352,0.52 C61.811,10.747 60.966,20.123 60.425,30.35 C60.436,34.565 55.237,34.235 55.215,30.278 C54.909,19.872 54.603,10.927 54.298,0.521 L52.284,0.521 C51.076,12.788 49.071,25.518 50.304,34.588 C51.537,43.656 57.363,42.18 59.115,51.606 C61.771,65.902 60.265,84.122 59.115,90.717 C58.268,95.566 54.056,122.991 55.247,127.078 C56.149,130.172 59.808,131.391 63.234,131.363 C66.659,131.335 70.371,130.33 71.273,127.078 C72.412,122.976 68.252,95.566 67.406,90.717 C66.254,84.122 64.749,65.902 67.406,51.606 C69.158,42.18 74.984,43.656 76.217,34.588 C77.45,25.518 75.444,12.788 74.236,0.521 L72.223,0.521 C71.917,10.927 71.612,19.872 71.306,30.278 C71.284,34.235 66.084,34.565 66.095,30.35 C65.555,20.123 64.709,10.747 64.168,0.52 C63.866,0.521 63.563,0.521 63.26,0.522 L63.26,0.522 Z" id="Shape" stroke-width="2.835"></path>
            </g>
        </g>
    </g>
</svg>