<svg xmlns="http://www.w3.org/2000/svg" width="260.667" height="267.333" viewBox="2.705 6.125 260.667 267.333" enable-background="new 2.705 6.125 260.667 267.333"><path d="M193.714 68.471c4.924-17.444 9.848-34.889 14.771-52.331l-4.498.59c4.563 8.409 9.129 16.814 13.692 25.224.525.972 1.735 1.41 2.781 1.132 11.486-3.076 22.973-6.153 34.459-9.231-.8-1.369-1.6-2.74-2.396-4.113-5.475 6.573-10.954 13.146-16.432 19.717-.719.858-.982 1.961-.387 2.983 3.1 5.289 6.199 10.577 9.301 15.868.489-1.208.978-2.411 1.469-3.616-13.724 4.226-27.447 8.452-41.171 12.674-3.024.932-1.733 5.684 1.306 4.746 13.724-4.227 27.45-8.452 41.174-12.676 1.509-.465 2.292-2.21 1.469-3.615-1.762-3.002-3.521-6.008-5.285-9.011l-3.204-5.47c-1.511-2.576-1.923 2.471-.397.642 5.211-6.251 10.425-12.506 15.635-18.757 1.516-1.821.133-4.791-2.395-4.114-10.849 2.906-21.701 5.813-32.552 8.719-3.432.918 1.032 1.943.345.678l-4.529-8.344c-2.878-5.305-5.757-10.611-8.638-15.917-1.032-1.905-3.933-1.41-4.498.589-4.926 17.444-9.851 34.888-14.774 52.329-.86 3.056 3.891 4.352 4.754 1.304zM149.393 103.093l9.675 9.194c2.219 2.107 5.306-1.055 2.983-3.263-3.226-3.064-6.451-6.126-9.676-9.191-2.219-2.108-5.308 1.055-2.982 3.26zM116.792 139.3l6.944 6.938c1.84 1.834 4.684-1.009 2.846-2.845l-6.947-6.938c-1.834-1.836-4.681 1.008-2.843 2.845zM200.08 96.998c-63.682 54.575-127.363 109.148-191.048 163.72l3.481 3.479c53.71-62.702 107.424-125.406 161.138-188.11 2.052-2.399-1.414-5.896-3.481-3.482-53.713 62.706-107.427 125.409-161.138 188.113-2.07 2.413 1.063 5.551 3.481 3.479 63.682-54.574 127.363-109.145 191.048-163.716 2.415-2.069-1.087-5.535-3.481-3.483zM199.089 104.222c5.105-3.217 8.795-8.27 10.546-13.994 2.563-8.374-1.02-11.76-6.772-16.39-4.166-3.351-9.764-9.732-15.605-9.824-7.258-.112-13.729 4.558-18.217 9.977-2.007 2.424 1.458 5.928 3.484 3.481 3.301-3.992 7.877-7.88 13.17-8.558 4.625-.595 9.387 4.951 12.615 7.546 5.159 4.152 8.066 5.144 6.579 12.464-.897 4.413-4.517 8.678-8.286 11.053-2.673 1.682-.205 5.941 2.486 4.245z"/></svg>
