<svg xmlns="http://www.w3.org/2000/svg" viewBox="0 0 99.9 87.6" enable-background="new 0 0 99.9 87.6"><style type="text/css">.st0{fill:#FE0000;}</style><title>logored@3x</title><desc>Created with Sketch.</desc><g id="logo"><path id="Fill-3" class="st0" d="M14.8 85.8h2c2.2 0 3-1.6 3-3.2 0-1.5-.9-3-3-3h-2v6.2zm6.8-3.2c0 2.4-1.4 4.9-4.8 4.9h-3.8v-9.6h3.8c3.3 0 4.7 2.4 4.8 4.7z"/><path id="Fill-4" class="st0" d="M32.4 87.5h-7.2v-9.6h7.2v1.8h-5.4v2.2h5.2v1.7h-5.2v2.1h5.4v1.8"/><path id="Fill-5" class="st0" d="M38 77.9v7.9h5v1.7h-6.8v-9.6h1.8"/><path id="Fill-6" class="st0" d="M46.7 87.5h1.8v-9.6h-1.8z"/><path id="Fill-7" class="st0" d="M57.8 87.6h-1.8l-4-9.7h2l2.9 7.5 2.9-7.5h2l-4 9.7"/><path id="Fill-8" class="st0" d="M72.5 87.5h-7.1v-9.6h7.1v1.8h-5.4v2.2h5.2v1.7h-5.2v2.1h5.4v1.8"/><path id="Fill-9" class="st0" d="M78.2 79.6v3.1h2.7c1.1 0 1.6-.8 1.6-1.5 0-.8-.5-1.5-1.6-1.5h-2.7v-.1zm6.7 7.9h-2.1l-2.8-3.2h-1.7v3.2h-1.8v-9.6h4.6c2.3 0 3.4 1.5 3.4 3.2 0 1.3-.6 2.6-2.4 3l2.9 3.3v.1h-.1z"/><path id="Fill-10" class="st0" d="M92.1 81.9l2.5-4h2.2v.1l-3.8 5.5v4h-1.8v-4l-3.7-5.5v-.1h2.2l2.4 4"/><path id="Fill-11" class="st0" d="M21.6 69.6c-1 1-2.3 1.4-3.6 1.4-3.6 0-5.1-2.5-5.1-5s1.6-5.1 5.1-5.1c1.3 0 2.5.5 3.5 1.5l-1.2 1.2c-.6-.6-1.5-.9-2.3-.9-2.3 0-3.3 1.7-3.3 3.3 0 1.6.9 3.3 3.3 3.3.8 0 1.8-.3 2.4-1l1.2 1.3"/><path id="Fill-12" class="st0" d="M33.2 70.8v-3.9h-4.7v3.9h-1.8v-9.6h1.8v4.1h4.7v-4.1h1.8v9.6h-1.8"/><path id="Fill-13" class="st0" d="M40.8 70.8h1.8v-9.6h-1.8z"/><path id="Fill-14" class="st0" d="M54.7 61.2h1.8v9.6h-1.1l-5-6.5v6.5h-1.8v-9.6h1.4l4.7 6v-6"/><path id="Fill-15" class="st0" d="M69.4 70.8h-7.2v-9.6h7.2v1.8h-5.4v2.2h5.2v1.7h-5.2v2.1h5.4v1.8"/><path id="Fill-16" class="st0" d="M81.1 63.5c-.3-.5-1.2-1.1-2.3-1.1-1.3 0-2 .6-2 1.3 0 .8 1 1.1 2.1 1.2 2 .2 3.9.8 3.9 3.1 0 2.1-1.9 3.1-4 3.1-2 0-3.5-.6-4.2-2.4l1.5-.8c.4 1.1 1.5 1.5 2.7 1.5 1.2 0 2.2-.4 2.2-1.4 0-.9-.9-1.3-2.2-1.4-2-.2-3.8-.8-3.8-2.9 0-2 1.9-2.8 3.7-2.8 1.5 0 3 .4 3.8 1.9l-1.4.7"/><path id="Fill-17" class="st0" d="M95.5 70.8h-7.2v-9.6h7.2v1.8h-5.4v2.2h5.2v1.7h-5.2v2.1h5.4v1.8"/><path id="Fill-18" class="st0" d="M44.2 34.4c-10.6-2.9-10.7-8.3-10.6-11.5.1-5.2 6.3-10.1 13.7-10.1 7 0 14.4 3.1 14.5 11.8h-9.9c-.1-2.7-2.3-3.1-4-3.1-2.3 0-3.8 1.1-3.7 2.7.1 1.1 1 2.1 3.1 2.7l6 1.6c8.5 2.4 9.6 8 9.6 10.3 0 7.5-7.9 11.1-15.3 11.1-7.2 0-14.7-4.3-14.7-12.2h9.8c.1 2 2.3 4.1 5.2 4.1 2.3-.1 4.3-1.1 4.3-3 0-1.5-.9-2.4-3.5-3l-4.5-1.4"/><path id="Fill-19" class="st0" d="M90.3 31.2c0-5.2-4-8.8-8.8-8.8-4.7 0-8.7 3.6-8.7 8.8 0 5.4 4 8.9 8.7 8.9 4.8-.1 8.8-3.5 8.8-8.9zm-27.1 0c0-11.1 8.3-18.4 18.3-18.4s18.4 7.2 18.4 18.4c0 11.1-8.4 18.4-18.4 18.4-10 0-18.3-7.3-18.3-18.4z"/><path id="Fill-20" class="st0" d="M21.1 35.1v-12.6h9.5l10.5-17.4h-10.9l-9.2 15.1v-20.2h-10.4v12.9h-7l-3.6 9.7h10.6l.6.2v12.3c0 10.8 5.6 14 13.1 13.7 2.7-.1 4.7-.6 7.2-1.5v-9c-1.1.6-5.3 1.4-6.5 1.4-1.9 0-3.9-1-3.9-4.6"/></g></svg>