<?xml version="1.0" encoding="UTF-8"?>
<svg width="349px" height="174px" viewBox="0 0 349 174" version="1.1" xmlns="http://www.w3.org/2000/svg" xmlns:xlink="http://www.w3.org/1999/xlink">
    <!-- Generator: Sketch 40.3 (33839) - http://www.bohemiancoding.com/sketch -->
    <title>tsominilogo</title>
    <desc>Created with Sketch.</desc>
    <defs></defs>
    <g id="Page-1" stroke="none" stroke-width="1" fill="none" fill-rule="evenodd">
        <g id="tsominilogo" fill="#FE0000">
            <path d="M154.018562,120.306065 C117.152106,110.299642 116.888401,91.6027098 117.152106,80.2803738 C117.414505,62.1108507 139.270674,45.2585464 165.077193,45.2585464 C189.567799,45.2585464 215.373012,56.0547782 215.636717,86.0740469 L181.140994,86.0740469 C180.877289,76.857433 172.977894,75.277815 167.184221,75.277815 C159.284825,75.277815 154.018562,78.9644606 154.280961,84.4931235 C154.544666,88.1797691 157.703902,91.8677201 165.077193,93.7097374 L185.881153,99.2410112 C215.636717,107.402806 219.323363,127.153252 219.323363,135.051342 C219.323363,161.122871 191.937226,173.500027 166.130707,173.500027 C141.113997,173.500027 115.045079,158.488434 114.782679,131.102297 L149.014698,131.102297 C149.278402,138.211884 157.177798,145.32147 167.184221,145.32147 C175.348626,145.059071 182.194508,141.372425 182.194508,135.051342 C182.194508,129.786384 179.033966,126.889548 170.081057,124.518815 L154.018562,120.306065" id="Fill-18"></path>
            <path d="M314.694429,108.97198 C314.694429,90.8377047 300.878647,78.459244 284.182999,78.459244 C267.777165,78.459244 253.960077,90.8377047 253.960077,108.97198 C253.960077,127.681967 267.777165,139.770614 284.182999,139.770614 C300.878647,139.770614 314.694429,127.681967 314.694429,108.97198 L314.694429,108.97198 Z M220.469565,108.983729 C220.469565,70.2739509 249.436625,45.2585464 284.194748,45.2585464 C318.954176,45.2585464 348.183636,70.2739509 348.183636,108.983729 C348.183636,147.692202 318.954176,172.972617 284.194748,172.972617 C249.436625,172.972617 220.469565,147.692202 220.469565,108.983729 L220.469565,108.983729 Z" id="Fill-19"></path>
            <path d="M73.5598721,122.633717 L73.5598721,78.7660293 L106.526891,78.7660293 L143.239301,18.572141 L105.226643,18.572141 L73.2335048,71.0285122 L73.2335048,0.756400209 L36.8944588,0.756400209 L36.8944588,45.485698 L12.3490232,45.485698 L0.075,79.2634131 L36.8944588,79.2634131 L38.8644121,79.9761994 L38.8644121,122.633717 C38.8644121,160.000168 58.5169483,171.403443 84.4775127,170.190662 C93.9395548,169.703722 100.978646,168.248123 109.712236,164.852597 L109.712236,133.726291 C105.82977,135.664913 91.2724809,138.646605 87.1471976,138.646605 C80.5963522,138.646605 73.5598721,135.251079 73.5598721,122.633717" id="Fill-20"></path>
        </g>
    </g>
</svg>