<?xml version="1.0" standalone="no"?>
<!DOCTYPE svg PUBLIC "-//W3C//DTD SVG 20010904//EN"
 "http://www.w3.org/TR/2001/REC-SVG-20010904/DTD/svg10.dtd">
<svg version="1.0" xmlns="http://www.w3.org/2000/svg"
 width="260.000000pt" height="260.000000pt" viewBox="0 0 260.000000 260.000000"
 preserveAspectRatio="xMidYMid meet">
<metadata>
Created by potrace 1.11, written by Peter Selinger 2001-2013
</metadata>
<g transform="translate(0.000000,260.000000) scale(0.100000,-0.100000)"
fill="#000000" stroke="none">
<path d="M445 2590 c-195 -41 -352 -179 -417 -368 l-23 -67 0 -855 0 -855 23
-67 c57 -165 185 -293 351 -350 l66 -23 855 0 855 0 67 23 c165 57 293 185
350 351 l23 66 0 855 0 855 -23 67 c-57 164 -178 286 -348 350 l-59 23 -840 2
c-462 0 -858 -3 -880 -7z m877 -816 l3 -316 148 236 149 236 174 0 c133 0 174
-3 173 -12 0 -7 -76 -132 -168 -278 l-167 -265 -157 -3 -157 -3 0 -225 c0
-250 6 -281 59 -308 46 -24 144 -17 264 20 16 5 17 -6 17 -139 l0 -145 -67
-18 c-51 -14 -102 -19 -203 -19 -125 0 -139 2 -190 26 -73 34 -120 76 -153
137 -48 88 -57 154 -57 420 0 133 -1 243 -2 244 -2 1 -84 4 -184 7 l-181 6 56
150 57 150 117 3 117 3 0 204 0 205 175 0 175 0 2 -316z"/>
</g>
</svg>
