<svg width="267" height="234" viewBox="0 0 267 234" xmlns="http://www.w3.org/2000/svg"><title>logored</title><desc>Created with Sketch.</desc><g fill="#FFF"><path d="M39.677 229.05h5.255c5.802 0 8.101-4.233 7.992-8.393-.11-3.978-2.445-7.956-7.992-7.956h-5.255v16.349zm18.027-8.357c.11 6.459-3.832 12.992-12.772 12.992h-10.036v-25.545h10.036c8.758 0 12.663 6.24 12.772 12.553z"/><path d="M86.503 233.685h-19.123v-25.545h19.123v4.671h-14.342v5.875h13.83v4.489h-13.83v5.766h14.342v4.744"/><path d="M101.615 208.14v21.093h13.137v4.452h-17.954v-25.545h4.817"/><path d="M124.757 233.685h4.78v-25.545h-4.78z"/><path d="M154.501 233.795h-4.998l-10.621-25.655h5.401l7.7 19.888 7.736-19.888h5.402l-10.62 25.655"/><path d="M193.702 233.685h-19.123v-25.545h19.123v4.671h-14.343v5.875h13.832v4.489h-13.832v5.766h14.343v4.744"/><path d="M208.852 212.628v8.175h7.334c3.066 0 4.379-2.044 4.379-4.087 0-2.044-1.35-4.088-4.379-4.088h-7.334zm17.809 21.057h-5.73l-7.445-8.539h-4.634v8.539h-4.818v-25.582l12.152.037c6.021.036 9.197 4.051 9.197 8.466 0 3.503-1.606 7.043-6.46 8.029l7.738 8.722v.328z"/><path d="M245.97 218.686l6.788-10.546h5.803v.218l-10.182 14.781v10.546h-4.817v-10.546l-9.816-14.781v-.218h5.729l6.495 10.546"/><path d="M57.74 186.059c-2.627 2.591-6.021 3.796-9.707 3.796-9.488 0-13.502-6.533-13.539-13.174-.036-6.679 4.307-13.467 13.539-13.467 3.467 0 6.751 1.315 9.379 3.905l-3.211 3.102c-1.679-1.642-3.942-2.408-6.168-2.408-6.167 0-8.831 4.598-8.794 8.868.036 4.233 2.481 8.648 8.794 8.648 2.226 0 4.744-.912 6.423-2.591l3.284 3.321"/><path d="M88.802 189.307v-10.328h-12.554v10.328h-4.816v-25.545h4.816v10.765h12.554v-10.765h4.781v25.545h-4.781"/><path d="M109.099 189.271h4.78v-25.546h-4.78z"/><path d="M146.143 163.689h4.816v25.582h-2.992v.036l-13.429-17.261v17.225h-4.817v-25.546h3.904l12.518 15.838v-15.874"/><path d="M185.379 189.271h-19.123v-25.546h19.123v4.671h-14.342v5.876h13.831v4.489h-13.831v5.765h14.342v4.745"/><path d="M216.586 169.892c-.876-1.459-3.285-2.846-6.058-2.846-3.576 0-5.292 1.496-5.292 3.394 0 2.226 2.627 2.847 5.694 3.211 5.327.657 10.29 2.044 10.29 8.139 0 5.693-5.035 8.138-10.729 8.138-5.218 0-9.233-1.607-11.13-6.278l4.014-2.08c1.132 2.811 4.087 4.051 7.189 4.051 3.029 0 5.876-1.058 5.876-3.831 0-2.409-2.518-3.395-5.912-3.759-5.219-.621-10.036-2.008-10.036-7.737 0-5.255 5.183-7.408 9.889-7.445 3.979 0 8.102 1.132 10.036 5.073l-3.831 1.97"/><path d="M254.947 189.271h-19.124v-25.546h19.124v4.671h-14.343v5.876h13.831v4.489h-13.831v5.765h14.343v4.745"/><path d="M117.997 92.475c-28.24-7.665-28.442-21.987-28.24-30.66.201-13.918 16.943-26.827 36.711-26.827 18.76 0 38.527 8.27 38.729 31.265h-26.424c-.202-7.06-6.253-8.27-10.691-8.27-6.051 0-10.085 2.824-9.884 7.059.202 2.824 2.622 5.649 8.27 7.06l15.936 4.237c22.793 6.252 25.617 21.381 25.617 27.431 0 19.971-20.978 29.452-40.746 29.452-19.163 0-39.132-11.499-39.333-32.477h26.222c.202 5.446 6.253 10.892 13.918 10.892 6.254-.201 11.498-3.025 11.498-7.867 0-4.033-2.421-6.252-9.279-8.068l-12.304-3.227"/><path d="M241.076 83.793c0-13.891-10.583-23.373-23.372-23.373-12.567 0-23.151 9.482-23.151 23.373 0 14.332 10.584 23.592 23.151 23.592 12.789 0 23.372-9.26 23.372-23.592zm-72.177.009c0-29.652 22.189-48.814 48.814-48.814 26.626 0 49.016 19.162 49.016 48.814 0 29.651-22.39 49.016-49.016 49.016-26.625 0-48.814-19.365-48.814-49.016z"/><path d="M56.365 94.258v-33.603h25.253l28.122-46.109h-29.118l-24.507 40.182v-53.829h-27.836v34.263h-18.802l-9.402 25.874h28.204l1.509.546v32.676c0 28.623 15.054 37.358 34.94 36.429 7.248-.373 12.64-1.488 19.33-4.089v-23.843c-2.974 1.485-14.125 3.769-17.285 3.769-5.018 0-10.408-2.601-10.408-12.266"/></g></svg>