<?xml version="1.0" encoding="utf-8"?>
<!-- Generator: Adobe Illustrator 19.2.1, SVG Export Plug-In . SVG Version: 6.00 Build 0)  -->
<svg version="1.1" id="Layer_1" xmlns="http://www.w3.org/2000/svg" xmlns:xlink="http://www.w3.org/1999/xlink" x="0px" y="0px"
	 viewBox="0 0 600 600" style="enable-background:new 0 0 600 600;" xml:space="preserve">
<style type="text/css">
	.st0{fill:#ED1C24;}
	.st1{fill:#FFFFFF;}
</style>
<g>
	<path class="st0" d="M600.4,495.4c0,57.8-47.2,105-105,105H104.6c-57.8,0-105-47.2-105-105V104.6c0-57.8,47.2-105,105-105h390.7
		c57.8,0,105,47.2,105,105V495.4z"/>
</g>
<g>
	<g>
		<path class="st1" d="M119.2,481.6c0.2,10.8-6.8,21.7-22.6,21.7H78.8v-42.6h17.8C112.1,460.6,119,471.1,119.2,481.6 M87.2,495.5
			h9.3c10.3,0,14.4-7.1,14.2-14c-0.2-6.6-4.3-13.3-14.2-13.3h-9.3V495.5z"/>
		<polygon class="st1" points="177.2,503.3 143.3,503.3 143.3,460.6 177.2,460.6 177.2,468.4 151.8,468.4 151.8,478.2 176.3,478.2 
			176.3,485.7 151.8,485.7 151.8,495.3 177.2,495.3 		"/>
		<polygon class="st1" points="213,460.6 213,495.8 236.3,495.8 236.3,503.2 204.5,503.2 204.5,460.6 		"/>
		<rect x="261.5" y="460.6" class="st1" width="8.5" height="42.6"/>
		<polygon class="st1" points="322.5,503.4 313.7,503.4 294.9,460.6 304.4,460.6 318.1,493.8 331.8,460.6 341.4,460.6 		"/>
		<polygon class="st1" points="397.5,503.3 363.6,503.3 363.6,460.6 397.5,460.6 397.5,468.4 372.1,468.4 372.1,478.2 396.6,478.2 
			396.6,485.7 372.1,485.7 372.1,495.3 397.5,495.3 		"/>
		<path class="st1" d="M464.2,503.2H454L440.9,489h-8.2v14.2h-8.5v-42.7c7.2,0,14.4,0.1,21.5,0.1c10.7,0.1,16.3,6.8,16.3,14.1
			c0,5.8-2.8,11.8-11.4,13.4l13.7,14.5V503.2z M432.6,468.1v13.6h13c5.4,0,7.8-3.4,7.8-6.8c0-3.4-2.4-6.8-7.8-6.8H432.6z"/>
		<polygon class="st1" points="501.2,478.2 513.2,460.6 523.5,460.6 523.5,461 505.4,485.7 505.4,503.3 496.9,503.3 496.9,485.7 
			479.5,461 479.5,460.6 489.7,460.6 		"/>
		<path class="st1" d="M117.9,423.8c-4.7,4.3-10.7,6.3-17.2,6.3c-16.8,0-23.9-10.9-24-22c-0.1-11.1,7.6-22.5,24-22.5
			c6.1,0,12,2.2,16.6,6.5l-5.7,5.2c-3-2.7-7-4-10.9-4c-10.9,0-15.7,7.7-15.6,14.8c0.1,7.1,4.4,14.4,15.6,14.4
			c3.9,0,8.4-1.5,11.4-4.3L117.9,423.8z"/>
		<polygon class="st1" points="179.4,429.2 179.4,412 157.1,412 157.1,429.2 148.6,429.2 148.6,386.6 157.1,386.6 157.1,404.6 
			179.4,404.6 179.4,386.6 187.9,386.6 187.9,429.2 		"/>
		<rect x="227.3" y="386.6" class="st1" width="8.5" height="42.6"/>
		<polygon class="st1" points="304.9,386.5 313.4,386.5 313.4,429.2 308.1,429.2 308.1,429.2 284.3,400.5 284.3,429.2 275.8,429.2 
			275.8,386.6 282.7,386.6 304.9,413 		"/>
		<polygon class="st1" points="383.6,429.2 349.7,429.2 349.7,386.6 383.6,386.6 383.6,394.4 358.2,394.4 358.2,404.2 382.7,404.2 
			382.7,411.7 358.2,411.7 358.2,421.3 383.6,421.3 		"/>
		<path class="st1" d="M448.1,396.9c-1.6-2.4-5.8-4.7-10.7-4.7c-6.3,0-9.4,2.5-9.4,5.7c0,3.7,4.7,4.7,10.1,5.4
			c9.4,1.1,18.2,3.4,18.2,13.6c0,9.5-8.9,13.6-19,13.6c-9.2,0-16.4-2.7-19.7-10.5l7.1-3.5c2,4.7,7.2,6.8,12.7,6.8
			c5.4,0,10.4-1.8,10.4-6.4c0-4-4.5-5.7-10.5-6.3c-9.2-1-17.8-3.3-17.8-12.9c0-8.8,9.2-12.4,17.5-12.4c7,0,14.4,1.9,17.8,8.5
			L448.1,396.9z"/>
		<polygon class="st1" points="522.5,429.2 488.6,429.2 488.6,386.6 522.5,386.6 522.5,394.4 497.1,394.4 497.1,404.2 521.6,404.2 
			521.6,411.7 497.1,411.7 497.1,421.3 522.5,421.3 		"/>
	</g>
	<g>
		<path class="st1" d="M272.2,260.1c-50.9-14.1-51.3-40.4-50.9-56.4c0.4-25.6,30.5-49.3,66.2-49.3c33.8,0,69.5,15.2,69.8,57.5h-47.6
			c-0.4-13-11.3-15.2-19.3-15.2c-10.9,0-18.2,5.2-17.8,13c0.4,5.2,4.7,10.4,14.9,13l28.7,7.8c41.1,11.5,46.2,39.3,46.2,50.5
			c0,36.7-37.8,54.2-73.5,54.2c-34.6,0-70.6-21.1-70.9-59.7h47.3c0.4,10,11.3,20,25.1,20c11.3-0.4,20.7-5.6,20.7-14.5
			c0-7.4-4.4-11.5-16.7-14.8L272.2,260.1z"/>
		<path class="st1" d="M364,245.4c0-54.5,40-89.8,88-89.8c48,0,88.4,35.2,88.4,89.8c0,54.5-40.4,90.2-88.4,90.2
			C404,335.6,364,299.9,364,245.4 M494.1,245.4c0-25.5-19.1-43-42.1-43c-22.7,0-41.7,17.4-41.7,43c0,26.4,19.1,43.4,41.7,43.4
			C475.1,288.8,494.1,271.7,494.1,245.4"/>
		<path class="st1" d="M179.9,290.8c-9.1,0-18.8-4.8-18.8-22.6v-67h-0.5V163V96.6h-50.2v63H76.6l-17,47.6h50.9l2.7,1v60.1
			c0,52.6,27.1,68.7,63,67c13.1-0.7,22.8-2.7,34.8-7.5v-43.8C205.7,286.6,185.6,290.8,179.9,290.8"/>
		<polygon class="st1" points="206.6,201.6 154.1,201.6 204.8,116.8 257.3,116.8 		"/>
	</g>
</g>
</svg>
