<svg viewBox="0 0 13 19" version="1.1" xmlns="http://www.w3.org/2000/svg" xmlns:xlink="http://www.w3.org/1999/xlink">
    <g stroke="none" stroke-width="1" fill="none" fill-rule="evenodd">
        <g id="address" transform="translate(-87.000000, -195.000000)" fill="#FF0000">
            <path d="M97.82,204 L100,204 L100,201 L97,201 L97,203.10276 C96.5397794,203.013149 96.1064479,202.845562 95.7,202.6 C95.099997,202.239998 94.6200018,201.753336 94.26,201.14 L93.4,199.82 C93.0266648,199.273331 92.5600028,199 92,199 C91.9199996,199 91.8100007,199.013333 91.67,199.04 C91.5299993,199.066667 91.4200004,199.08 91.34,199.08 L87,200.92 L87,204.82 L88.68,204.82 L88.68,202 L90.16,201.42 L87.82,213.18 L89.58,213.18 L91.1,206.5 L92.82,208.18 L92.82,213.18 L94.5,213.18 L94.5,206.92 L92.74,205.24 L93.26,202.74 C93.8066694,203.380003 94.4733294,203.886665 95.26,204.26 C96.060004,204.633335 96.9133288,204.82 97.82,204.82 L97.82,204 Z M93.26,198.56 C92.8066644,198.56 92.413335,198.400002 92.08,198.08 C91.746665,197.759998 91.58,197.373336 91.58,196.92 C91.58,196.466664 91.746665,196.073335 92.08,195.74 C92.413335,195.406665 92.8066644,195.24 93.26,195.24 C93.7133356,195.24 94.106665,195.409998 94.44,195.75 C94.773335,196.090002 94.94,196.479998 94.94,196.92 C94.94,197.360002 94.7700017,197.743332 94.43,198.07 C94.0899983,198.396668 93.7000022,198.56 93.26,198.56 Z"></path>
        </g>
    </g>
</svg>